<svg width="86" height="86" viewBox="0 0 86 86" fill="none" xmlns="http://www.w3.org/2000/svg">
<path d="M43 63C38.5816 63 35 59.4184 35 55C35 50.5816 38.5816 47 43 47C47.4184 47 51 50.5816 51 55C51 59.4184 47.4184 63 43 63Z" stroke="black" stroke-width="5" stroke-linecap="round" stroke-linejoin="round"/>
<path d="M43 83C65.0912 83 83 65.0912 83 43C83 20.9086 65.0912 3 43 3C20.9086 3 3 20.9086 3 43C3 65.0912 20.9086 83 43 83Z" stroke="black" stroke-width="5" stroke-linecap="round" stroke-linejoin="round"/>
<path d="M29 31C27.8954 31 27 30.1046 27 29C27 27.8954 27.8954 27 29 27C30.1046 27 31 27.8954 31 29C31 30.1046 30.1046 31 29 31Z" fill="black" stroke="black" stroke-width="5" stroke-linecap="round" stroke-linejoin="round"/>
<path d="M57 31C55.8956 31 55 30.1046 55 29C55 27.8954 55.8956 27 57 27C58.1044 27 59 27.8954 59 29C59 30.1046 58.1044 31 57 31Z" fill="black" stroke="black" stroke-width="5" stroke-linecap="round" stroke-linejoin="round"/>
</svg>
