<svg width="120" height="120" viewBox="0 0 120 120" fill="none" xmlns="http://www.w3.org/2000/svg">
<mask id="mask0_43_330" style="mask-type:luminance" maskUnits="userSpaceOnUse" x="0" y="0" width="120" height="120">
<path d="M120 60C120 26.8629 93.1371 0 60 0C26.8629 0 0 26.8629 0 60C0 93.1371 26.8629 120 60 120C93.1371 120 120 93.1371 120 60Z" fill="white"/>
</mask>
<g mask="url(#mask0_43_330)">
<path d="M120 0H0V120H120V0Z" fill="#73B06F"/>
<path d="M12.4527 18.8625L38.9139 111.144C42.5674 123.885 55.8581 131.252 68.5995 127.599L160.881 101.137C173.622 97.4839 180.989 84.1932 177.336 71.4519L150.874 -20.8293C147.221 -33.5706 133.93 -40.9378 121.189 -37.2842L28.9077 -10.8231C16.1663 -7.16952 8.79919 6.12116 12.4527 18.8625Z" fill="#405059"/>
<path d="M62.6601 69.2781C69.078 73.0683 75.7285 73.5334 82.6114 70.6732" stroke="white" stroke-width="3.33333" stroke-linecap="round"/>
<path d="M52.417 48.513C52.5454 46.6765 51.533 45.1097 50.1556 45.0134C48.7783 44.9171 47.5576 46.3277 47.4292 48.1642C47.3008 50.0007 48.3132 51.5675 49.6906 51.6638C51.0679 51.7601 52.2886 50.3495 52.417 48.513Z" fill="white"/>
<path d="M98.97 51.7683C99.0984 49.9318 98.086 48.365 96.7086 48.2687C95.3313 48.1724 94.1106 49.583 93.9822 51.4195C93.8538 53.256 94.8662 54.8228 96.2436 54.9191C97.6209 55.0154 98.8416 53.6048 98.97 51.7683Z" fill="white"/>
</g>
</svg>
