<svg width="120" height="120" viewBox="0 0 120 120" fill="none" xmlns="http://www.w3.org/2000/svg">
<mask id="mask0_43_352" style="mask-type:luminance" maskUnits="userSpaceOnUse" x="0" y="0" width="120" height="120">
<path d="M120 60C120 26.8629 93.1371 0 60 0C26.8629 0 0 26.8629 0 60C0 93.1371 26.8629 120 60 120C93.1371 120 120 93.1371 120 60Z" fill="white"/>
</mask>
<g mask="url(#mask0_43_352)">
<path d="M120 0H0V120H120V0Z" fill="#EDD75A"/>
<path d="M2.44632 97.0076L78.0954 156.111C88.5403 164.272 103.623 162.42 111.784 151.975L170.887 76.3257C179.048 65.8808 177.196 50.7981 166.751 42.6376L91.1016 -16.4659C80.6566 -24.6264 65.5739 -22.7745 57.4135 -12.3295L-1.69006 63.3195C-9.85055 73.7645 -7.99863 88.8471 2.44632 97.0076Z" fill="#0C8F8F"/>
<path d="M58.2206 85.8908C58.7311 89.0848 60.9498 91.886 64.3886 93.6781C67.8274 95.4701 72.2046 96.1063 76.5573 95.4467C80.91 94.787 84.8817 92.8856 87.5985 90.1606C90.3153 87.4357 91.5548 84.1104 91.0443 80.9164" fill="white"/>
<path d="M53.7418 65.9487C53.4608 64.1442 52.1447 62.852 50.8022 63.0626C49.4597 63.2732 48.5992 64.9069 48.8802 66.7114C49.1612 68.516 50.4773 69.8082 51.8198 69.5976C53.1623 69.3869 54.0228 67.7533 53.7418 65.9487Z" fill="white"/>
<path d="M93.3525 60.3818C93.0716 58.5772 91.7555 57.285 90.413 57.4957C89.0705 57.7063 88.2099 59.3399 88.4909 61.1445C88.7719 62.9491 90.088 64.2412 91.4305 64.0306C92.773 63.82 93.6335 62.1863 93.3525 60.3818Z" fill="white"/>
</g>
</svg>
