<svg width="120" height="120" viewBox="0 0 120 120" fill="none" xmlns="http://www.w3.org/2000/svg">
<mask id="mask0_43_341" style="mask-type:luminance" maskUnits="userSpaceOnUse" x="0" y="0" width="120" height="120">
<path d="M120 60C120 26.8629 93.1371 0 60 0C26.8629 0 0 26.8629 0 60C0 93.1371 26.8629 120 60 120C93.1371 120 120 93.1371 120 60Z" fill="white"/>
</mask>
<g mask="url(#mask0_43_341)">
<path d="M120 0H0V120H120V0Z" fill="#FFAD08"/>
<path d="M11.2275 49.1315L54.7987 116.225C60.8146 125.489 73.2011 128.122 82.4648 122.106L149.558 78.5347C158.822 72.5188 161.455 60.1322 155.439 50.8685L111.868 -16.2251C105.852 -25.4888 93.4655 -28.1217 84.2018 -22.1058L17.1082 21.4653C7.84446 27.4813 5.21162 39.8678 11.2275 49.1315Z" fill="#73B06F"/>
<path d="M62.1474 57.8605C69.1706 60.3566 75.7876 59.5441 81.9984 55.4231" stroke="black" stroke-width="3.33333" stroke-linecap="round"/>
<path d="M55.5598 45.2359C55.3354 43.4087 54.0426 42.0639 52.6722 42.2321C51.3018 42.4004 50.3727 44.0181 50.597 45.8453C50.8214 47.6725 52.1142 49.0174 53.4846 48.8491C54.8551 48.6808 55.7841 47.0632 55.5598 45.2359Z" fill="black"/>
<path d="M88.6446 41.1736C88.4203 39.3464 87.1275 38.0015 85.757 38.1698C84.3866 38.3381 83.4576 39.9557 83.6819 41.783C83.9063 43.6102 85.1991 44.9551 86.5695 44.7868C87.9399 44.6185 88.869 43.0009 88.6446 41.1736Z" fill="black"/>
</g>
</svg>
