<svg width="114" height="104" viewBox="0 0 114 104" fill="none" xmlns="http://www.w3.org/2000/svg">
<path d="M4 87.7623V82.5272C4 62.2881 20.407 45.8811 40.6461 45.8811" stroke="black" stroke-width="7.85273" stroke-linecap="round" stroke-linejoin="round"/>
<path d="M76.2647 47.522C79.6247 43.8328 85.4294 43.8328 88.7893 47.522C90.4876 49.3868 92.9282 50.3977 95.4474 50.2799C100.432 50.0469 104.537 54.1518 104.304 59.1362C104.186 61.6554 105.197 64.096 107.062 65.7943C110.751 69.1542 110.751 74.9589 107.062 78.3189C105.197 80.0171 104.186 82.4578 104.304 84.9769C104.537 89.9613 100.432 94.0662 95.4474 93.8332C92.9282 93.7155 90.4876 94.7264 88.7893 96.5911C85.4294 100.28 79.6247 100.28 76.2647 96.5911C74.5665 94.7264 72.1258 93.7155 69.6067 93.8332C64.6223 94.0662 60.5174 89.9613 60.7504 84.9769C60.8682 82.4578 59.8573 80.0171 57.9925 78.3189C54.3033 74.9589 54.3033 69.1542 57.9925 65.7943C59.8573 64.096 60.8682 61.6554 60.7504 59.1362C60.5174 54.1518 64.6223 50.0469 69.6067 50.2799C72.1258 50.3977 74.5665 49.3868 76.2647 47.522Z" stroke="black" stroke-width="7.85273"/>
<path d="M73.9602 72.0575L79.6718 77.7685L91.0938 66.3464" stroke="black" stroke-width="7.85273" stroke-linecap="round" stroke-linejoin="round"/>
<path d="M40.6462 45.8812C52.2112 45.8812 61.5868 36.5056 61.5868 24.9406C61.5868 13.3754 52.2112 4 40.6462 4C29.081 4 19.7056 13.3754 19.7056 24.9406C19.7056 36.5056 29.081 45.8812 40.6462 45.8812Z" stroke="black" stroke-width="7.85273" stroke-linecap="round" stroke-linejoin="round"/>
</svg>
