<svg width="27" height="28" viewBox="0 0 27 28" fill="none" xmlns="http://www.w3.org/2000/svg">
<path d="M9.28974 9.48493H10.3636L13.3814 14.3173H13.4709L16.4886 9.48493H17.5625L13.8885 15.2569V19.6667H12.9637V15.2569L9.28974 9.48493Z" fill="white"/>
<path d="M9.28974 9.48493V8.48493H7.46783L8.44614 10.0219L9.28974 9.48493ZM10.3636 9.48493L11.2118 8.95524L10.9181 8.48493H10.3636V9.48493ZM13.3814 14.3173L12.5332 14.847L12.8269 15.3173H13.3814V14.3173ZM13.4709 14.3173V15.3173H14.0253L14.319 14.847L13.4709 14.3173ZM16.4886 9.48493V8.48493H15.9341L15.6404 8.95524L16.4886 9.48493ZM17.5625 9.48493L18.4061 10.0219L19.3844 8.48493H17.5625V9.48493ZM13.8885 15.2569L13.0449 14.72L12.8885 14.9657V15.2569H13.8885ZM13.8885 19.6667V20.6667H14.8885V19.6667H13.8885ZM12.9637 19.6667H11.9637V20.6667H12.9637V19.6667ZM12.9637 15.2569H13.9637V14.9657L13.8074 14.72L12.9637 15.2569ZM9.28974 10.4849H10.3636V8.48493H9.28974V10.4849ZM9.51541 10.0146L12.5332 14.847L14.2296 13.7876L11.2118 8.95524L9.51541 10.0146ZM13.3814 15.3173H13.4709V13.3173H13.3814V15.3173ZM14.319 14.847L17.3368 10.0146L15.6404 8.95524L12.6227 13.7876L14.319 14.847ZM16.4886 10.4849H17.5625V8.48493H16.4886V10.4849ZM16.7189 8.94796L13.0449 14.72L14.7321 15.7939L18.4061 10.0219L16.7189 8.94796ZM12.8885 15.2569V19.6667H14.8885V15.2569H12.8885ZM13.8885 18.6667H12.9637V20.6667H13.8885V18.6667ZM13.9637 19.6667V15.2569H11.9637V19.6667H13.9637ZM13.8074 14.72L10.1333 8.94796L8.44614 10.0219L12.1201 15.7939L13.8074 14.72Z" fill="white"/>
<path d="M13.5 25.6667C20.4035 25.6667 26 20.2941 26 13.6667C26 7.03933 20.4035 1.66675 13.5 1.66675C6.59644 1.66675 1 7.03933 1 13.6667C1 20.2941 6.59644 25.6667 13.5 25.6667Z" stroke="white" stroke-width="2" stroke-linecap="round" stroke-linejoin="round"/>
</svg>
