<svg width="60" height="60" viewBox="0 0 60 60" fill="none" xmlns="http://www.w3.org/2000/svg">
<path d="M21 57H39V31.8C39 30.8058 38.1941 30 37.2 30H22.8C21.8058 30 21 30.8058 21 31.8V57Z" stroke="black" stroke-width="5" stroke-linecap="round" stroke-linejoin="round"/>
<path d="M4.80012 57H21.0001V48.3C21.0001 47.3058 20.1943 46.5 19.2001 46.5H4.80012C3.80592 46.5 3.00012 47.3058 3.00012 48.3V55.2C3.00012 56.1942 3.80592 57 4.80012 57Z" stroke="black" stroke-width="5" stroke-linecap="round" stroke-linejoin="round"/>
<path d="M39 57V42.3C39 41.3058 39.8059 40.5 40.8 40.5H55.2C56.1941 40.5 57 41.3058 57 42.3V55.2C57 56.1942 56.1941 57 55.2 57H39Z" stroke="black" stroke-width="5" stroke-linecap="round" stroke-linejoin="round"/>
<path d="M33.5832 9.33976L30.8559 3.55681C30.5058 2.8144 29.4942 2.8144 29.1441 3.55681L26.4168 9.33976L20.3175 10.2728C19.5348 10.3925 19.2231 11.3993 19.7895 11.9769L24.2022 16.4751L23.1609 22.83C23.0271 23.6461 23.8455 24.2685 24.5457 23.883L30 20.8809L35.4543 23.883C36.1545 24.2685 36.973 23.6461 36.8392 22.83L35.7978 16.4751L40.2105 11.9769C40.777 11.3993 40.4651 10.3925 39.6826 10.2728L33.5832 9.33976Z" stroke="black" stroke-width="5" stroke-linecap="round" stroke-linejoin="round"/>
</svg>
