<svg width="181" height="182" viewBox="0 0 181 182" fill="none" xmlns="http://www.w3.org/2000/svg">
<path d="M73.2175 84.3613L12.066 145.513C5.31134 152.267 5.31134 163.219 12.066 169.974C18.8205 176.729 29.7719 176.729 36.5265 169.974L97.6779 108.823" stroke="black" stroke-width="12.9722" stroke-linecap="round" stroke-linejoin="round"/>
<path d="M134.986 111.973L168.526 145.513C175.281 152.267 175.281 163.219 168.526 169.974C161.772 176.729 150.82 176.729 144.066 169.974L90.3737 116.283" stroke="black" stroke-width="12.9722" stroke-linecap="round" stroke-linejoin="round"/>
<path d="M44.5262 43.6909L26.1808 49.8061L7.83531 19.2304L20.0656 7L50.6414 25.3455L44.5262 43.6909ZM44.5262 43.6909L69.0024 68.1671" stroke="black" stroke-width="12.9722" stroke-linecap="round" stroke-linejoin="round"/>
<path d="M73.2176 84.3615C65.9203 65.742 67.347 41.3112 82.3907 26.2676C97.4341 11.224 125.196 7.92218 140.485 17.0949L114.188 43.391L111.744 70.2957L138.648 67.8517L164.945 41.5555C174.118 56.8434 170.816 84.6062 155.773 99.6497C140.728 114.693 116.298 116.12 97.6788 108.822" stroke="black" stroke-width="12.9722" stroke-linecap="round" stroke-linejoin="round"/>
</svg>
