<svg width="46" height="46" viewBox="0 0 46 46" fill="none" xmlns="http://www.w3.org/2000/svg">
<path d="M13 35.0001V33.0001C13 27.4773 17.4772 23.0001 23 23.0001C28.5228 23.0001 33 27.4773 33 33.0001V35.0001" stroke="black" stroke-width="5" stroke-linecap="round"/>
<path d="M23 23C26.3138 23 29 20.3138 29 17C29 13.6863 26.3138 11 23 11C19.6862 11 17 13.6863 17 17C17 20.3138 19.6862 23 23 23Z" stroke="black" stroke-width="5" stroke-linecap="round" stroke-linejoin="round"/>
<path d="M23 43C34.0457 43 43 34.0457 43 23C43 11.9543 34.0457 3 23 3C11.9543 3 3 11.9543 3 23C3 34.0457 11.9543 43 23 43Z" stroke="black" stroke-width="5"/>
</svg>
