<svg width="86" height="86" viewBox="0 0 86 86" fill="none" xmlns="http://www.w3.org/2000/svg">
<path d="M29.6667 83H56.3334V45.6667C56.3334 44.1938 55.1395 43 53.6667 43H32.3334C30.8605 43 29.6667 44.1938 29.6667 45.6667V83Z" stroke="white" stroke-width="5" stroke-linecap="round" stroke-linejoin="round"/>
<path d="M5.66678 82.9999H29.6668V70.111C29.6668 68.6381 28.473 67.4443 27.0001 67.4443H5.66678C4.19389 67.4443 3.00011 68.6381 3.00011 70.111V80.3332C3.00011 81.8061 4.19389 82.9999 5.66678 82.9999Z" stroke="white" stroke-width="5" stroke-linecap="round" stroke-linejoin="round"/>
<path d="M56.3333 83.0001V61.2223C56.3333 59.7494 57.5272 58.5557 59 58.5557H80.3333C81.8061 58.5557 83 59.7494 83 61.2223V80.3334C83 81.8063 81.8061 83.0001 80.3333 83.0001H56.3333Z" stroke="white" stroke-width="5" stroke-linecap="round" stroke-linejoin="round"/>
<path d="M48.3084 12.3922L44.2679 3.8249C43.7493 2.72503 42.2506 2.72503 41.7319 3.8249L37.6915 12.3922L28.6555 13.7745C27.4959 13.9519 27.0342 15.4434 27.8733 16.2991L34.4106 22.9631L32.8679 32.3777C32.6697 33.5868 33.8821 34.5089 34.9195 33.9377L42.9999 29.4903L51.0804 33.9377C52.1177 34.5089 53.3302 33.5868 53.1321 32.3777L51.5893 22.9631L58.1265 16.2991C58.9659 15.4434 58.5038 13.9519 57.3445 13.7745L48.3084 12.3922Z" stroke="white" stroke-width="5" stroke-linecap="round" stroke-linejoin="round"/>
</svg>
