<svg width="71" height="76" viewBox="0 0 71 76" fill="none" xmlns="http://www.w3.org/2000/svg">
<path d="M68 3L64.3889 6.68419" stroke="#7900B3" stroke-width="5" stroke-linecap="round" stroke-linejoin="round"/>
<path d="M3 3L6.61111 6.68419" stroke="#7900B3" stroke-width="5" stroke-linecap="round" stroke-linejoin="round"/>
<path d="M68 54.5787L64.3889 50.8945" stroke="#7900B3" stroke-width="5" stroke-linecap="round" stroke-linejoin="round"/>
<path d="M3 54.5787L6.61111 50.8945" stroke="#7900B3" stroke-width="5" stroke-linecap="round" stroke-linejoin="round"/>
<path d="M24.6667 61.947H46.3334" stroke="#7900B3" stroke-width="5" stroke-linecap="round" stroke-linejoin="round"/>
<path d="M28.2778 73H42.7223" stroke="#7900B3" stroke-width="5" stroke-linecap="round" stroke-linejoin="round"/>
<path d="M35.4996 6.68408C21.0547 6.68408 13.6598 13.8693 13.8331 25.105C13.9175 30.583 15.6381 34.3155 19.2497 37.9997C22.8614 41.6839 24.6669 43.526 24.6664 50.8944H46.3329C46.3336 43.5263 48.1392 41.6839 51.7492 38.0001C55.36 34.3159 57.0821 30.583 57.1662 25.105C57.3396 13.8693 49.9447 6.68408 35.4996 6.68408Z" stroke="#7900B3" stroke-width="5" stroke-linecap="round" stroke-linejoin="round"/>
</svg>
