<svg width="60" height="18" viewBox="0 0 60 18" fill="none" xmlns="http://www.w3.org/2000/svg">
<path d="M11.8679 16.7358C16.2132 16.7358 19.7358 13.2132 19.7358 8.86789C19.7358 4.52257 16.2132 1 11.8679 1C7.52257 1 4 4.52257 4 8.86789C4 13.2132 7.52257 16.7358 11.8679 16.7358Z" fill="url(#paint0_linear_386_11)" stroke="black" stroke-width="1.18018" stroke-linecap="round" stroke-linejoin="round"/>
<path d="M14.2283 6.11427C13.6894 5.57533 12.7402 5.20046 11.8679 5.17699ZM9.50757 11.2284C10.0146 11.9045 10.9575 12.2901 11.8679 12.3228ZM11.8679 5.17699C10.8301 5.14906 9.90096 5.61858 9.90096 6.90107C9.90096 9.26143 14.2283 8.08125 14.2283 10.4416C14.2283 11.7878 13.0766 12.3663 11.8679 12.3228M11.8679 5.17699V3.75391ZM11.8679 12.3228V13.9822Z" fill="url(#paint1_linear_386_11)"/>
<path d="M14.2283 6.11427C13.6894 5.57533 12.7402 5.20046 11.8679 5.17699M11.8679 5.17699C10.8301 5.14906 9.90096 5.61858 9.90096 6.90107C9.90096 9.26143 14.2283 8.08125 14.2283 10.4416C14.2283 11.7878 13.0766 12.3663 11.8679 12.3228M11.8679 5.17699V3.75391M9.50757 11.2284C10.0146 11.9045 10.9575 12.2901 11.8679 12.3228M11.8679 12.3228V13.9822" stroke="black" stroke-width="1.18018" stroke-linecap="round" stroke-linejoin="round"/>
<path d="M25.6648 13.1364C25.0341 13.1364 24.4901 12.9972 24.0327 12.7188C23.5781 12.4375 23.2273 12.0455 22.9801 11.5426C22.7358 11.0369 22.6136 10.4489 22.6136 9.77841C22.6136 9.10795 22.7358 8.51705 22.9801 8.00568C23.2273 7.49148 23.571 7.09091 24.0114 6.80398C24.4545 6.5142 24.9716 6.36932 25.5625 6.36932C25.9034 6.36932 26.2401 6.42614 26.5724 6.53977C26.9048 6.65341 27.2074 6.83807 27.4801 7.09375C27.7528 7.34659 27.9702 7.68182 28.1321 8.09943C28.294 8.51705 28.375 9.03125 28.375 9.64205V10.0682H23.3295V9.19886H27.3523C27.3523 8.82955 27.2784 8.5 27.1307 8.21023C26.9858 7.92045 26.7784 7.69176 26.5085 7.52415C26.2415 7.35653 25.9261 7.27273 25.5625 7.27273C25.1619 7.27273 24.8153 7.37216 24.5227 7.57102C24.233 7.76705 24.0099 8.02273 23.8537 8.33807C23.6974 8.65341 23.6193 8.99148 23.6193 9.35227V9.93182C23.6193 10.4261 23.7045 10.8452 23.875 11.1889C24.0483 11.5298 24.2884 11.7898 24.5952 11.9688C24.902 12.1449 25.2585 12.233 25.6648 12.233C25.929 12.233 26.1676 12.196 26.3807 12.1222C26.5966 12.0455 26.7827 11.9318 26.9389 11.7812C27.0952 11.6278 27.2159 11.4375 27.3011 11.2102L28.2727 11.483C28.1705 11.8125 27.9986 12.1023 27.7571 12.3523C27.5156 12.5994 27.2173 12.7926 26.8622 12.9318C26.5071 13.0682 26.108 13.1364 25.6648 13.1364ZM30.9105 9.0625V13H29.9048V6.45455H30.8764V7.47727H30.9616C31.1151 7.14489 31.348 6.87784 31.6605 6.67614C31.973 6.47159 32.3764 6.36932 32.8707 6.36932C33.3139 6.36932 33.7017 6.46023 34.0341 6.64205C34.3665 6.82102 34.625 7.09375 34.8097 7.46023C34.9943 7.82386 35.0866 8.28409 35.0866 8.84091V13H34.081V8.90909C34.081 8.39489 33.9474 7.99432 33.6804 7.70739C33.4134 7.41761 33.0469 7.27273 32.581 7.27273C32.2599 7.27273 31.973 7.34233 31.7202 7.48153C31.4702 7.62074 31.2727 7.82386 31.1278 8.09091C30.983 8.35795 30.9105 8.68182 30.9105 9.0625ZM36.9244 13V6.45455H37.93V13H36.9244ZM37.4357 5.36364C37.2397 5.36364 37.0707 5.29688 36.9286 5.16335C36.7894 5.02983 36.7198 4.86932 36.7198 4.68182C36.7198 4.49432 36.7894 4.33381 36.9286 4.20028C37.0707 4.06676 37.2397 4 37.4357 4C37.6317 4 37.7994 4.06676 37.9386 4.20028C38.0806 4.33381 38.1516 4.49432 38.1516 4.68182C38.1516 4.86932 38.0806 5.02983 37.9386 5.16335C37.7994 5.29688 37.6317 5.36364 37.4357 5.36364ZM42.4311 13.1364C41.8402 13.1364 41.3217 12.9957 40.8757 12.7145C40.4325 12.4332 40.0859 12.0398 39.8359 11.5341C39.5888 11.0284 39.4652 10.4375 39.4652 9.76136C39.4652 9.07955 39.5888 8.48437 39.8359 7.97585C40.0859 7.46733 40.4325 7.07244 40.8757 6.79119C41.3217 6.50994 41.8402 6.36932 42.4311 6.36932C43.022 6.36932 43.5391 6.50994 43.9822 6.79119C44.4283 7.07244 44.7749 7.46733 45.022 7.97585C45.272 8.48437 45.397 9.07955 45.397 9.76136C45.397 10.4375 45.272 11.0284 45.022 11.5341C44.7749 12.0398 44.4283 12.4332 43.9822 12.7145C43.5391 12.9957 43.022 13.1364 42.4311 13.1364ZM42.4311 12.233C42.88 12.233 43.2493 12.1179 43.5391 11.8878C43.8288 11.6577 44.0433 11.3551 44.1825 10.9801C44.3217 10.6051 44.3913 10.1989 44.3913 9.76136C44.3913 9.32386 44.3217 8.91619 44.1825 8.53835C44.0433 8.16051 43.8288 7.85511 43.5391 7.62216C43.2493 7.3892 42.88 7.27273 42.4311 7.27273C41.9822 7.27273 41.6129 7.3892 41.3232 7.62216C41.0334 7.85511 40.8189 8.16051 40.6797 8.53835C40.5405 8.91619 40.4709 9.32386 40.4709 9.76136C40.4709 10.1989 40.5405 10.6051 40.6797 10.9801C40.8189 11.3551 41.0334 11.6577 41.3232 11.8878C41.6129 12.1179 41.9822 12.233 42.4311 12.233ZM46.9322 13V6.45455H47.9038V7.44318H47.9719C48.0913 7.11932 48.3072 6.85653 48.6197 6.65483C48.9322 6.45312 49.2844 6.35227 49.6765 6.35227C49.7504 6.35227 49.8427 6.35369 49.9535 6.35653C50.0643 6.35937 50.1481 6.36364 50.2049 6.36932V7.39205C50.1708 7.38352 50.0927 7.37074 49.9705 7.35369C49.8512 7.33381 49.7248 7.32386 49.5913 7.32386C49.2731 7.32386 48.989 7.39062 48.739 7.52415C48.4918 7.65483 48.2958 7.83665 48.1509 8.0696C48.0089 8.29972 47.9379 8.5625 47.9379 8.85795V13H46.9322Z" fill="url(#paint2_linear_386_11)"/>
<defs>
<linearGradient id="paint0_linear_386_11" x1="11.8679" y1="1" x2="11.8679" y2="16.7358" gradientUnits="userSpaceOnUse">
<stop offset="0.270833" stop-color="#430085"/>
<stop offset="1" stop-opacity="0"/>
</linearGradient>
<linearGradient id="paint1_linear_386_11" x1="11.8679" y1="3.75391" x2="11.8679" y2="13.9822" gradientUnits="userSpaceOnUse">
<stop offset="0.270833" stop-color="#430085"/>
<stop offset="1" stop-opacity="0"/>
</linearGradient>
<linearGradient id="paint2_linear_386_11" x1="40" y1="1" x2="40" y2="17" gradientUnits="userSpaceOnUse">
<stop offset="0.270833" stop-color="#430085"/>
<stop offset="1" stop-opacity="0"/>
</linearGradient>
</defs>
</svg>
