<svg width="88" height="88" viewBox="0 0 88 88" fill="none" xmlns="http://www.w3.org/2000/svg">
<path d="M44 4C21.9086 4 4 21.9086 4 44C4 66.0912 21.9086 84 44 84C66.0912 84 84 66.0912 84 44C84 21.9086 66.0912 4 44 4Z" stroke="black" stroke-width="8" stroke-linecap="round" stroke-linejoin="round"/>
<path d="M13.084 69.3828C13.084 69.3828 22.0001 58 44 58C66 58 74.9164 69.3828 74.9164 69.3828" stroke="black" stroke-width="8" stroke-linecap="round" stroke-linejoin="round"/>
<path d="M44 44C50.6276 44 56 38.6276 56 32C56 25.3726 50.6276 20 44 20C37.3724 20 32 25.3726 32 32C32 38.6276 37.3724 44 44 44Z" stroke="black" stroke-width="8" stroke-linecap="round" stroke-linejoin="round"/>
</svg>
