<svg width="71" height="76" viewBox="0 0 71 76" fill="none" xmlns="http://www.w3.org/2000/svg">
<path d="M3 44.9999V60.3999C3 61.5598 3.97005 62.4999 5.16667 62.4999H24.6667" stroke="#7900B3" stroke-width="5" stroke-linecap="round" stroke-linejoin="round"/>
<path d="M57.1664 44.9999V60.3999C57.1664 61.5598 56.1964 62.4999 54.9997 62.4999H39.1108" stroke="#7900B3" stroke-width="5" stroke-linecap="round" stroke-linejoin="round"/>
<path d="M39.1108 13.4999H54.9997C56.1964 13.4999 57.1664 14.4401 57.1664 15.5999V30.9999" stroke="#7900B3" stroke-width="5" stroke-linecap="round" stroke-linejoin="round"/>
<path d="M3 30.9999V15.5999C3 14.4401 3.97005 13.4999 5.16667 13.4999H24.6667" stroke="#7900B3" stroke-width="5" stroke-linecap="round" stroke-linejoin="round"/>
<path d="M39.1109 62.5V66C39.1109 69.8661 35.8776 73 31.8887 73C27.8999 73 24.6665 69.8661 24.6665 66V62.5" stroke="#7900B3" stroke-width="5" stroke-linecap="round" stroke-linejoin="round"/>
<path d="M3 31H6.61111C10.5998 31 13.8333 34.1339 13.8333 38C13.8333 41.8661 10.5998 45 6.61111 45H3" stroke="#7900B3" stroke-width="5" stroke-linecap="round" stroke-linejoin="round"/>
<path d="M57.1665 31H60.7776C64.7664 31 67.9998 34.1339 67.9998 38C67.9998 41.8661 64.7664 45 60.7776 45H57.1665" stroke="#7900B3" stroke-width="5" stroke-linecap="round" stroke-linejoin="round"/>
<path d="M39.1109 13.5V10C39.1109 6.134 35.8776 3 31.8887 3C27.8999 3 24.6665 6.134 24.6665 10V13.5" stroke="#7900B3" stroke-width="5" stroke-linecap="round" stroke-linejoin="round"/>
<path d="M20.875 38.267H31.8033M31.8033 38.267H42.7316M31.8033 38.267V27.6749M31.8033 38.267V48.859" stroke="#7900B3" stroke-width="5" stroke-linecap="round" stroke-linejoin="round"/>
</svg>
