<svg width="1920" height="1080" viewBox="0 0 1920 1080" fill="none" xmlns="http://www.w3.org/2000/svg">
<path d="M1123.19 284.055L1125.6 241.705L1133.92 237.728L1131.35 275.785L1148.23 267.712L1143.22 258.077L1150.34 254.673L1155.34 264.308L1159.36 262.387L1162.53 268.487L1158.51 270.408L1164.51 281.95L1157.4 285.354L1151.4 273.812L1124.54 286.654L1123.19 284.055ZM1162.98 253.689C1159.04 246.11 1157.78 239.341 1159.2 233.382C1160.6 227.55 1164.36 223.167 1170.49 220.235C1176.53 217.347 1182.35 217.146 1187.96 219.63C1193.74 222.174 1198.59 227.224 1202.52 234.78C1206.45 242.336 1207.72 249.07 1206.33 254.983C1205.01 260.725 1201.32 265.039 1195.28 267.927C1189.15 270.859 1183.25 271.129 1177.58 268.735C1171.79 266.283 1166.92 261.268 1162.98 253.689ZM1192.48 262.692C1194.9 261.535 1196.64 260.095 1197.71 258.371C1198.78 256.648 1199.34 254.736 1199.39 252.634C1199.5 248.775 1198.08 244.015 1195.14 238.354C1190.52 229.481 1185.45 224.739 1179.91 224.127C1177.83 223.91 1175.61 224.368 1173.23 225.503C1168.79 227.626 1166.48 231.014 1166.28 235.664C1166.11 239.729 1167.47 244.546 1170.36 250.115C1176.79 262.477 1184.16 266.669 1192.48 262.692ZM1213.48 240.878L1215.88 198.528L1224.2 194.551L1221.63 232.608L1238.51 224.535L1233.5 214.9L1240.62 211.495L1245.63 221.131L1249.65 219.21L1252.82 225.31L1248.8 227.231L1254.8 238.773L1247.68 242.177L1241.68 230.635L1214.83 243.477L1213.48 240.878Z" fill="#D8D8D8"/>
<path d="M1348.38 215.612L1350.78 173.263L1359.1 169.286L1356.53 207.342L1373.41 199.27L1368.4 189.634L1375.52 186.23L1380.53 195.866L1384.55 193.944L1387.72 200.044L1383.7 201.966L1389.7 213.507L1382.58 216.912L1376.58 205.37L1349.73 218.212L1348.38 215.612ZM1388.17 185.246C1384.23 177.667 1382.97 170.899 1384.39 164.94C1385.78 159.107 1389.55 154.725 1395.68 151.792C1401.72 148.905 1407.54 148.703 1413.14 151.188C1418.92 153.732 1423.78 158.782 1427.7 166.337C1431.63 173.893 1432.9 180.628 1431.52 186.541C1430.19 192.282 1426.51 196.597 1420.47 199.484C1414.34 202.417 1408.44 202.686 1402.76 200.293C1396.97 197.841 1392.1 192.825 1388.17 185.246ZM1417.66 194.25C1420.08 193.092 1421.83 191.652 1422.9 189.929C1423.96 188.206 1424.53 186.293 1424.58 184.191C1424.68 180.332 1423.26 175.572 1420.32 169.911C1415.71 161.038 1410.63 156.296 1405.1 155.685C1403.02 155.467 1400.79 155.926 1398.42 157.061C1393.98 159.184 1391.66 162.571 1391.47 167.222C1391.29 171.287 1392.65 176.104 1395.55 181.673C1401.97 194.035 1409.34 198.227 1417.66 194.25ZM1438.66 172.435L1441.07 130.086L1449.39 126.109L1446.82 164.165L1463.7 156.093L1458.69 146.457L1465.81 143.053L1470.81 152.688L1474.83 150.767L1478 156.867L1473.98 158.789L1479.98 170.33L1472.87 173.735L1466.87 162.193L1440.01 175.035L1438.66 172.435Z" fill="#D8D8D8"/>
<path d="M252.534 237.658L254.941 195.309L263.258 191.331L260.688 229.388L277.568 221.315L272.559 211.68L279.678 208.276L284.686 217.911L288.704 215.99L291.874 222.09L287.857 224.011L293.856 235.553L286.738 238.957L280.739 227.416L253.886 240.258L252.534 237.658ZM292.322 207.292C288.383 199.713 287.123 192.944 288.543 186.985C289.941 181.153 293.705 176.77 299.837 173.838C305.875 170.951 311.696 170.749 317.299 173.234C323.08 175.777 327.934 180.827 331.862 188.383C335.789 195.939 337.06 202.673 335.675 208.587C334.348 214.328 330.665 218.642 324.627 221.53C318.496 224.462 312.593 224.732 306.92 222.338C301.128 219.886 296.262 214.871 292.322 207.292ZM321.818 216.295C324.238 215.138 325.983 213.698 327.052 211.975C328.122 210.251 328.683 208.339 328.734 206.237C328.84 202.378 327.422 197.618 324.479 191.957C319.867 183.084 314.792 178.342 309.253 177.731C307.174 177.513 304.948 177.972 302.576 179.106C298.135 181.23 295.819 184.617 295.625 189.268C295.45 193.333 296.81 198.15 299.705 203.718C306.131 216.08 313.502 220.273 321.818 216.295ZM342.819 194.481L345.226 152.132L353.543 148.154L350.973 186.211L367.853 178.138L362.844 168.503L369.963 165.099L374.971 174.734L378.989 172.813L382.159 178.913L378.142 180.834L384.141 192.376L377.023 195.78L371.024 184.239L344.171 197.08L342.819 194.481Z" fill="#D8D8D8"/>
<path d="M214.112 539.158L216.519 496.809L224.836 492.832L222.266 530.888L239.146 522.816L234.137 513.18L241.256 509.776L246.264 519.411L250.282 517.49L253.452 523.59L249.435 525.512L255.434 537.053L248.316 540.458L242.316 528.916L215.464 541.758L214.112 539.158ZM253.9 508.792C249.961 501.213 248.701 494.444 250.121 488.486C251.519 482.653 255.283 478.271 261.415 475.338C267.453 472.451 273.273 472.249 278.877 474.734C284.658 477.278 289.512 482.327 293.44 489.883C297.367 497.439 298.638 504.174 297.253 510.087C295.926 515.828 292.243 520.143 286.205 523.03C280.073 525.963 274.171 526.232 268.497 523.839C262.706 521.387 257.84 516.371 253.9 508.792ZM283.396 517.796C285.816 516.638 287.561 515.198 288.63 513.475C289.7 511.752 290.261 509.839 290.312 507.737C290.418 503.878 289 499.118 286.057 493.457C281.445 484.584 276.37 479.842 270.831 479.231C268.752 479.013 266.526 479.472 264.154 480.607C259.713 482.73 257.397 486.117 257.203 490.768C257.028 494.833 258.388 499.65 261.283 505.218C267.708 517.58 275.08 521.773 283.396 517.796ZM304.397 495.981L306.804 453.632L315.121 449.654L312.551 487.711L329.431 479.639L324.422 470.003L331.541 466.599L336.549 476.234L340.566 474.313L343.737 480.413L339.72 482.335L345.719 493.876L338.601 497.281L332.601 485.739L305.749 498.581L304.397 495.981Z" fill="#D8D8D8"/>
<path d="M511.579 337.386L513.986 295.037L522.302 291.06L519.732 329.116L536.612 321.044L531.604 311.408L538.722 308.004L543.731 317.639L547.748 315.718L550.919 321.818L546.901 323.74L552.901 335.281L545.782 338.686L539.783 327.144L512.93 339.986L511.579 337.386ZM551.367 307.02C547.427 299.441 546.168 292.672 547.588 286.714C548.985 280.881 552.75 276.499 558.882 273.566C564.919 270.679 570.74 270.477 576.343 272.962C582.124 275.506 586.979 280.555 590.906 288.111C594.834 295.667 596.105 302.402 594.72 308.315C593.392 314.056 589.71 318.371 583.672 321.258C577.54 324.191 571.637 324.46 565.964 322.067C560.172 319.615 555.306 314.599 551.367 307.02ZM580.863 316.024C583.283 314.866 585.027 313.426 586.097 311.703C587.167 309.98 587.727 308.067 587.779 305.965C587.885 302.106 586.466 297.346 583.524 291.685C578.912 282.812 573.836 278.07 568.297 277.459C566.219 277.241 563.993 277.7 561.62 278.835C557.18 280.958 554.863 284.345 554.67 288.996C554.495 293.061 555.855 297.878 558.749 303.446C565.175 315.808 572.546 320.001 580.863 316.024ZM601.864 294.209L604.271 251.86L612.587 247.883L610.017 285.939L626.897 277.867L621.889 268.231L629.007 264.827L634.016 274.462L638.033 272.541L641.204 278.641L637.186 280.563L643.186 292.104L636.067 295.509L630.068 283.967L603.215 296.809L601.864 294.209Z" fill="#D8D8D8"/>
<path d="M367.016 732.041L369.423 689.692L377.739 685.715L375.169 723.771L392.049 715.699L387.041 706.063L394.159 702.659L399.167 712.295L403.185 710.373L406.356 716.473L402.338 718.395L408.338 729.936L401.219 733.341L395.22 721.799L368.367 734.641L367.016 732.041ZM406.804 701.675C402.864 694.096 401.604 687.328 403.024 681.369C404.422 675.536 408.187 671.154 414.318 668.221C420.356 665.334 426.177 665.132 431.78 667.617C437.561 670.161 442.415 675.211 446.343 682.766C450.27 690.322 451.542 697.057 450.157 702.97C448.829 708.711 445.146 713.026 439.109 715.913C432.977 718.846 427.074 719.115 421.401 716.722C415.609 714.27 410.743 709.254 406.804 701.675ZM436.3 710.679C438.719 709.521 440.464 708.081 441.534 706.358C442.603 704.635 443.164 702.722 443.215 700.62C443.321 696.761 441.903 692.001 438.961 686.34C434.348 677.467 429.273 672.725 423.734 672.114C421.655 671.896 419.43 672.355 417.057 673.49C412.617 675.613 410.3 679 410.107 683.651C409.932 687.716 411.291 692.533 414.186 698.102C420.612 710.464 427.983 714.656 436.3 710.679ZM457.301 688.864L459.708 646.515L468.024 642.538L465.454 680.594L482.334 672.522L477.325 662.886L484.444 659.482L489.452 669.117L493.47 667.196L496.641 673.296L492.623 675.218L498.623 686.759L491.504 690.164L485.505 678.622L458.652 691.464L457.301 688.864Z" fill="#D8D8D8"/>
<path d="M586.641 559.602L589.047 517.253L597.364 513.275L594.794 551.332L611.674 543.26L606.665 533.624L613.784 530.22L618.792 539.855L622.81 537.934L625.98 544.034L621.963 545.955L627.962 557.497L620.844 560.901L614.845 549.36L587.992 562.202L586.641 559.602ZM626.428 529.236C622.489 521.657 621.229 514.888 622.649 508.93C624.047 503.097 627.811 498.715 633.943 495.782C639.981 492.895 645.802 492.693 651.405 495.178C657.186 497.721 662.04 502.771 665.968 510.327C669.895 517.883 671.167 524.617 669.781 530.531C668.454 536.272 664.771 540.586 658.733 543.474C652.602 546.406 646.699 546.676 641.026 544.283C635.234 541.831 630.368 536.815 626.428 529.236ZM655.924 538.239C658.344 537.082 660.089 535.642 661.159 533.919C662.228 532.195 662.789 530.283 662.84 528.181C662.946 524.322 661.528 519.562 658.585 513.901C653.973 505.028 648.898 500.286 643.359 499.675C641.28 499.457 639.054 499.916 636.682 501.05C632.241 503.174 629.925 506.561 629.731 511.212C629.556 515.277 630.916 520.094 633.811 525.662C640.237 538.024 647.608 542.217 655.924 538.239ZM676.925 516.425L679.332 474.076L687.649 470.098L685.079 508.155L701.959 500.083L696.95 490.447L704.069 487.043L709.077 496.678L713.095 494.757L716.265 500.857L712.248 502.778L718.247 514.32L711.129 517.724L705.13 506.183L678.277 519.025L676.925 516.425Z" fill="#D8D8D8"/>
<path d="M624.635 896.481L627.042 854.131L635.358 850.154L632.788 888.211L649.668 880.138L644.659 870.503L651.778 867.099L656.786 876.734L660.804 874.813L663.975 880.913L659.957 882.834L665.957 894.376L658.838 897.78L652.839 886.238L625.986 899.08L624.635 896.481ZM664.423 866.115C660.483 858.536 659.223 851.767 660.643 845.808C662.041 839.976 665.806 835.593 671.937 832.661C677.975 829.773 683.796 829.572 689.399 832.056C695.18 834.6 700.034 839.65 703.962 847.206C707.889 854.762 709.161 861.496 707.776 867.409C706.448 873.151 702.765 877.465 696.727 880.353C690.596 883.285 684.693 883.555 679.02 881.161C673.228 878.709 668.362 873.694 664.423 866.115ZM693.919 875.118C696.338 873.961 698.083 872.521 699.153 870.797C700.222 869.074 700.783 867.162 700.834 865.06C700.94 861.201 699.522 856.441 696.58 850.78C691.967 841.907 686.892 837.165 681.353 836.553C679.274 836.336 677.049 836.794 674.676 837.929C670.236 840.053 667.919 843.44 667.726 848.09C667.551 852.155 668.91 856.972 671.805 862.541C678.231 874.903 685.602 879.095 693.919 875.118ZM714.92 853.304L717.327 810.954L725.643 806.977L723.073 845.034L739.953 836.961L734.944 827.326L742.063 823.921L747.071 833.557L751.089 831.636L754.26 837.736L750.242 839.657L756.242 851.199L749.123 854.603L743.124 843.061L716.271 855.903L714.92 853.304Z" fill="#D8D8D8"/>
<path d="M898.007 781.818L900.414 739.468L908.731 735.491L906.161 773.548L923.041 765.475L918.032 755.84L925.151 752.435L930.159 762.071L934.176 760.15L937.347 766.25L933.33 768.171L939.329 779.713L932.211 783.117L926.211 771.575L899.358 784.417L898.007 781.818ZM937.795 751.452C933.856 743.873 932.596 737.104 934.016 731.145C935.414 725.313 939.178 720.93 945.31 717.998C951.348 715.11 957.168 714.909 962.772 717.393C968.553 719.937 973.407 724.987 977.335 732.543C981.262 740.099 982.533 746.833 981.148 752.746C979.821 758.488 976.138 762.802 970.1 765.69C963.968 768.622 958.066 768.891 952.392 766.498C946.6 764.046 941.735 759.031 937.795 751.452ZM967.291 760.455C969.711 759.298 971.456 757.857 972.525 756.134C973.595 754.411 974.155 752.498 974.207 750.397C974.313 746.538 972.895 741.778 969.952 736.116C965.34 727.244 960.264 722.502 954.725 721.89C952.647 721.673 950.421 722.131 948.048 723.266C943.608 725.389 941.291 728.777 941.098 733.427C940.923 737.492 942.283 742.309 945.178 747.878C951.603 760.24 958.975 764.432 967.291 760.455ZM988.292 738.641L990.699 696.291L999.016 692.314L996.446 730.371L1013.33 722.298L1008.32 712.663L1015.44 709.258L1020.44 718.894L1024.46 716.973L1027.63 723.073L1023.61 724.994L1029.61 736.536L1022.5 739.94L1016.5 728.398L989.643 741.24L988.292 738.641Z" fill="#D8D8D8"/>
<path d="M214.112 924.035L216.519 881.686L224.836 877.709L222.266 915.765L239.146 907.693L234.137 898.058L241.256 894.653L246.264 904.289L250.282 902.367L253.452 908.468L249.435 910.389L255.434 921.93L248.316 925.335L242.316 913.793L215.464 926.635L214.112 924.035ZM253.9 893.669C249.961 886.09 248.701 879.322 250.121 873.363C251.519 867.53 255.283 863.148 261.415 860.215C267.453 857.328 273.273 857.127 278.877 859.611C284.658 862.155 289.512 867.205 293.44 874.76C297.367 882.316 298.638 889.051 297.253 894.964C295.926 900.705 292.243 905.02 286.205 907.907C280.073 910.84 274.171 911.109 268.497 908.716C262.706 906.264 257.84 901.248 253.9 893.669ZM283.396 902.673C285.816 901.515 287.561 900.075 288.63 898.352C289.7 896.629 290.261 894.716 290.312 892.614C290.418 888.755 289 883.995 286.057 878.334C281.445 869.461 276.37 864.719 270.831 864.108C268.752 863.89 266.526 864.349 264.154 865.484C259.713 867.607 257.397 870.994 257.203 875.645C257.028 879.71 258.388 884.527 261.283 890.096C267.708 902.458 275.08 906.65 283.396 902.673ZM304.397 880.858L306.804 838.509L315.121 834.532L312.551 872.588L329.431 864.516L324.422 854.88L331.541 851.476L336.549 861.112L340.566 859.19L343.737 865.29L339.72 867.212L345.719 878.753L338.601 882.158L332.601 870.616L305.749 883.458L304.397 880.858Z" fill="#D8D8D8"/>
<path d="M31.5551 780.04L33.962 737.69L42.2786 733.713L39.7084 771.77L56.5883 763.697L51.5799 754.062L58.6984 750.658L63.7068 760.293L67.7242 758.372L70.895 764.472L66.8777 766.393L72.877 777.935L65.7585 781.339L59.7592 769.797L32.9063 782.639L31.5551 780.04ZM71.343 749.674C67.4035 742.095 66.1437 735.326 67.5638 729.367C68.9613 723.535 72.726 719.152 78.8578 716.22C84.8956 713.332 90.7162 713.131 96.3196 715.615C102.101 718.159 106.955 723.209 110.882 730.765C114.81 738.321 116.081 745.055 114.696 750.968C113.368 756.71 109.686 761.024 103.648 763.912C97.5161 766.844 91.6136 767.114 85.9402 764.72C80.1482 762.268 75.2825 757.253 71.343 749.674ZM100.839 758.677C103.259 757.52 105.004 756.08 106.073 754.356C107.143 752.633 107.703 750.721 107.755 748.619C107.861 744.76 106.443 740 103.5 734.339C98.8878 725.466 93.8122 720.724 88.2732 720.113C86.1947 719.895 83.969 720.353 81.5962 721.488C77.156 723.612 74.8392 726.999 74.646 731.649C74.471 735.715 75.8308 740.531 78.7254 746.1C85.1511 758.462 92.5223 762.654 100.839 758.677ZM121.84 736.863L124.247 694.513L132.564 690.536L129.993 728.593L146.873 720.52L141.865 710.885L148.983 707.481L153.992 717.116L158.009 715.195L161.18 721.295L157.163 723.216L163.162 734.758L156.043 738.162L150.044 726.62L123.191 739.462L121.84 736.863Z" fill="#D8D8D8"/>
<path d="M31.5551 383.607L33.962 341.258L42.2786 337.281L39.7084 375.337L56.5883 367.265L51.5799 357.629L58.6984 354.225L63.7068 363.86L67.7242 361.939L70.895 368.039L66.8777 369.961L72.877 381.502L65.7585 384.907L59.7592 373.365L32.9063 386.207L31.5551 383.607ZM71.343 353.241C67.4035 345.662 66.1437 338.893 67.5638 332.935C68.9613 327.102 72.726 322.72 78.8578 319.787C84.8956 316.9 90.7162 316.698 96.3196 319.183C102.101 321.727 106.955 326.776 110.882 334.332C114.81 341.888 116.081 348.623 114.696 354.536C113.368 360.277 109.686 364.592 103.648 367.479C97.5161 370.411 91.6136 370.681 85.9402 368.288C80.1482 365.836 75.2825 360.82 71.343 353.241ZM100.839 362.244C103.259 361.087 105.004 359.647 106.073 357.924C107.143 356.201 107.703 354.288 107.755 352.186C107.861 348.327 106.443 343.567 103.5 337.906C98.8878 329.033 93.8122 324.291 88.2732 323.68C86.1947 323.462 83.969 323.921 81.5962 325.056C77.156 327.179 74.8392 330.566 74.646 335.217C74.471 339.282 75.8308 344.099 78.7254 349.667C85.1511 362.029 92.5223 366.222 100.839 362.244ZM121.84 340.43L124.247 298.081L132.564 294.103L129.993 332.16L146.873 324.088L141.865 314.452L148.983 311.048L153.992 320.683L158.009 318.762L161.18 324.862L157.163 326.783L163.162 338.325L156.043 341.729L150.044 330.188L123.191 343.03L121.84 340.43Z" fill="#D8D8D8"/>
<path d="M31.5551 124.949L33.962 82.5991L42.2786 78.6218L39.7084 116.679L56.5883 108.606L51.5799 98.9706L58.6984 95.5663L63.7068 105.202L67.7242 103.281L70.895 109.381L66.8777 111.302L72.877 122.844L65.7585 126.248L59.7592 114.706L32.9063 127.548L31.5551 124.949ZM71.343 94.5825C67.4035 87.0036 66.1437 80.2347 67.5638 74.276C68.9613 68.4434 72.726 64.0609 78.8578 61.1285C84.8956 58.2411 90.7162 58.0396 96.3196 60.5241C102.101 63.0679 106.955 68.1178 110.882 75.6736C114.81 83.2294 116.081 89.9639 114.696 95.877C113.368 101.618 109.686 105.933 103.648 108.82C97.5161 111.753 91.6136 112.022 85.9402 109.629C80.1482 107.177 75.2825 102.161 71.343 94.5825ZM100.839 103.586C103.259 102.429 105.004 100.988 106.073 99.2651C107.143 97.5419 107.703 95.6293 107.755 93.5275C107.861 89.6685 106.443 84.9084 103.5 79.2473C98.8878 70.3744 93.8122 65.6324 88.2732 65.0213C86.1947 64.8035 83.969 65.2621 81.5962 66.3968C77.156 68.5203 74.8392 71.9074 74.646 76.5582C74.471 80.6232 75.8308 85.4401 78.7254 91.0087C85.1511 103.371 92.5223 107.563 100.839 103.586ZM121.84 81.7715L124.247 39.422L132.564 35.4448L129.993 73.5015L146.873 65.429L141.865 55.7935L148.983 52.3893L153.992 62.0247L158.009 60.1035L161.18 66.2036L157.163 68.1248L163.162 79.6665L156.043 83.0708L150.044 71.5291L123.191 84.371L121.84 81.7715Z" fill="#D8D8D8"/>
<path d="M1658.82 124.949L1661.22 82.5991L1669.54 78.6218L1666.97 116.679L1683.85 108.606L1678.84 98.9706L1685.96 95.5663L1690.97 105.202L1694.99 103.281L1698.16 109.381L1694.14 111.302L1700.14 122.844L1693.02 126.248L1687.02 114.706L1660.17 127.548L1658.82 124.949ZM1698.61 94.5825C1694.67 87.0036 1693.41 80.2347 1694.83 74.276C1696.22 68.4434 1699.99 64.0609 1706.12 61.1285C1712.16 58.2411 1717.98 58.0396 1723.58 60.5241C1729.36 63.0679 1734.22 68.1178 1738.14 75.6736C1742.07 83.2294 1743.34 89.9639 1741.96 95.877C1740.63 101.618 1736.95 105.933 1730.91 108.82C1724.78 111.753 1718.88 112.022 1713.2 109.629C1707.41 107.177 1702.54 102.161 1698.61 94.5825ZM1728.1 103.586C1730.52 102.429 1732.27 100.988 1733.34 99.2651C1734.4 97.5419 1734.97 95.6293 1735.02 93.5275C1735.12 89.6685 1733.7 84.9084 1730.76 79.2473C1726.15 70.3744 1721.07 65.6324 1715.54 65.0213C1713.46 64.8035 1711.23 65.2621 1708.86 66.3968C1704.42 68.5203 1702.1 71.9074 1701.91 76.5582C1701.73 80.6232 1703.09 85.4401 1705.99 91.0087C1712.41 103.371 1719.78 107.563 1728.1 103.586ZM1749.1 81.7715L1751.51 39.422L1759.83 35.4448L1757.26 73.5015L1774.14 65.429L1769.13 55.7935L1776.25 52.3893L1781.25 62.0247L1785.27 60.1035L1788.44 66.2036L1784.42 68.1248L1790.42 79.6665L1783.31 83.0708L1777.31 71.5291L1750.45 84.371L1749.1 81.7715Z" fill="#D8D8D8"/>
<path d="M1757.05 426.273L1759.45 383.923L1767.77 379.946L1765.2 418.003L1782.08 409.93L1777.07 400.295L1784.19 396.891L1789.2 406.526L1793.22 404.605L1796.39 410.705L1792.37 412.626L1798.37 424.168L1791.25 427.572L1785.25 416.03L1758.4 428.872L1757.05 426.273ZM1796.83 395.907C1792.89 388.328 1791.63 381.559 1793.05 375.6C1794.45 369.768 1798.22 365.385 1804.35 362.453C1810.39 359.565 1816.21 359.364 1821.81 361.848C1827.59 364.392 1832.45 369.442 1836.37 376.998C1840.3 384.554 1841.57 391.288 1840.19 397.201C1838.86 402.943 1835.18 407.257 1829.14 410.145C1823.01 413.077 1817.1 413.347 1811.43 410.953C1805.64 408.501 1800.77 403.486 1796.83 395.907ZM1826.33 404.91C1828.75 403.753 1830.49 402.313 1831.56 400.589C1832.63 398.866 1833.19 396.954 1833.25 394.852C1833.35 390.993 1831.93 386.233 1828.99 380.572C1824.38 371.699 1819.3 366.957 1813.76 366.345C1811.69 366.128 1809.46 366.586 1807.09 367.721C1802.65 369.845 1800.33 373.232 1800.14 377.882C1799.96 381.947 1801.32 386.764 1804.22 392.333C1810.64 404.695 1818.01 408.887 1826.33 404.91ZM1847.33 383.096L1849.74 340.746L1858.05 336.769L1855.48 374.826L1872.36 366.753L1867.36 357.118L1874.47 353.713L1879.48 363.349L1883.5 361.428L1886.67 367.528L1882.65 369.449L1888.65 380.991L1881.53 384.395L1875.54 372.853L1848.68 385.695L1847.33 383.096Z" fill="#D8D8D8"/>
<path d="M1769.09 719.597L1771.5 677.248L1779.82 673.271L1777.25 711.327L1794.13 703.255L1789.12 693.619L1796.24 690.215L1801.24 699.85L1805.26 697.929L1808.43 704.029L1804.42 705.951L1810.41 717.492L1803.3 720.897L1797.3 709.355L1770.44 722.197L1769.09 719.597ZM1808.88 689.231C1804.94 681.652 1803.68 674.883 1805.1 668.925C1806.5 663.092 1810.26 658.71 1816.4 655.777C1822.43 652.89 1828.25 652.688 1833.86 655.173C1839.64 657.717 1844.49 662.766 1848.42 670.322C1852.35 677.878 1853.62 684.613 1852.23 690.526C1850.91 696.267 1847.22 700.582 1841.19 703.469C1835.05 706.401 1829.15 706.671 1823.48 704.278C1817.69 701.826 1812.82 696.81 1808.88 689.231ZM1838.38 698.234C1840.8 697.077 1842.54 695.637 1843.61 693.914C1844.68 692.191 1845.24 690.278 1845.29 688.176C1845.4 684.317 1843.98 679.557 1841.04 673.896C1836.43 665.023 1831.35 660.281 1825.81 659.67C1823.73 659.452 1821.51 659.911 1819.13 661.046C1814.69 663.169 1812.38 666.556 1812.18 671.207C1812.01 675.272 1813.37 680.089 1816.26 685.657C1822.69 698.019 1830.06 702.212 1838.38 698.234ZM1859.38 676.42L1861.78 634.071L1870.1 630.093L1867.53 668.15L1884.41 660.078L1879.4 650.442L1886.52 647.038L1891.53 656.673L1895.55 654.752L1898.72 660.852L1894.7 662.773L1900.7 674.315L1893.58 677.719L1887.58 666.178L1860.73 679.02L1859.38 676.42Z" fill="#D8D8D8"/>
<path d="M1746.85 1062.7L1749.26 1020.35L1757.58 1016.37L1755.01 1054.43L1771.89 1046.36L1766.88 1036.72L1774 1033.32L1779 1042.95L1783.02 1041.03L1786.19 1047.13L1782.18 1049.05L1788.17 1060.59L1781.06 1064L1775.06 1052.46L1748.2 1065.3L1746.85 1062.7ZM1786.64 1032.33C1782.7 1024.75 1781.44 1017.98 1782.86 1012.03C1784.26 1006.19 1788.02 1001.81 1794.16 998.878C1800.19 995.991 1806.01 995.789 1811.62 998.274C1817.4 1000.82 1822.25 1005.87 1826.18 1013.42C1830.11 1020.98 1831.38 1027.71 1829.99 1033.63C1828.67 1039.37 1824.98 1043.68 1818.95 1046.57C1812.81 1049.5 1806.91 1049.77 1801.24 1047.38C1795.45 1044.93 1790.58 1039.91 1786.64 1032.33ZM1816.14 1041.34C1818.56 1040.18 1820.3 1038.74 1821.37 1037.01C1822.44 1035.29 1823 1033.38 1823.05 1031.28C1823.16 1027.42 1821.74 1022.66 1818.8 1017C1814.19 1008.12 1809.11 1003.38 1803.57 1002.77C1801.49 1002.55 1799.27 1003.01 1796.89 1004.15C1792.45 1006.27 1790.14 1009.66 1789.94 1014.31C1789.77 1018.37 1791.13 1023.19 1794.02 1028.76C1800.45 1041.12 1807.82 1045.31 1816.14 1041.34ZM1837.14 1019.52L1839.54 977.172L1847.86 973.195L1845.29 1011.25L1862.17 1003.18L1857.16 993.543L1864.28 990.139L1869.29 999.774L1873.31 997.853L1876.48 1003.95L1872.46 1005.87L1878.46 1017.42L1871.34 1020.82L1865.34 1009.28L1838.49 1022.12L1837.14 1019.52Z" fill="#D8D8D8"/>
<path d="M1204.74 466.272L1207.15 423.922L1215.46 419.945L1212.89 458.002L1229.77 449.929L1224.77 440.294L1231.88 436.889L1236.89 446.525L1240.91 444.604L1244.08 450.704L1240.06 452.625L1246.06 464.167L1238.94 467.571L1232.94 456.029L1206.09 468.871L1204.74 466.272ZM1244.53 435.906C1240.59 428.327 1239.33 421.558 1240.75 415.599C1242.15 409.766 1245.91 405.384 1252.04 402.452C1258.08 399.564 1263.9 399.363 1269.51 401.847C1275.29 404.391 1280.14 409.441 1284.07 416.997C1288 424.552 1289.27 431.287 1287.88 437.2C1286.55 442.941 1282.87 447.256 1276.83 450.143C1270.7 453.076 1264.8 453.345 1259.13 450.952C1253.33 448.5 1248.47 443.484 1244.53 435.906ZM1274.02 444.909C1276.44 443.752 1278.19 442.311 1279.26 440.588C1280.33 438.865 1280.89 436.952 1280.94 434.85C1281.05 430.991 1279.63 426.231 1276.69 420.57C1272.07 411.697 1267 406.955 1261.46 406.344C1259.38 406.127 1257.15 406.585 1254.78 407.72C1250.34 409.843 1248.02 413.23 1247.83 417.881C1247.66 421.946 1249.02 426.763 1251.91 432.332C1258.34 444.694 1265.71 448.886 1274.02 444.909ZM1295.03 423.094L1297.43 380.745L1305.75 376.768L1303.18 414.824L1320.06 406.752L1315.05 397.117L1322.17 393.712L1327.18 403.348L1331.19 401.426L1334.37 407.527L1330.35 409.448L1336.35 420.99L1329.23 424.394L1323.23 412.852L1296.38 425.694L1295.03 423.094Z" fill="#D8D8D8"/>
<path d="M898.007 176.503L900.414 134.153L908.731 130.176L906.161 168.233L923.041 160.16L918.032 150.525L925.151 147.121L930.159 156.756L934.176 154.835L937.347 160.935L933.33 162.856L939.329 174.398L932.211 177.802L926.211 166.26L899.358 179.102L898.007 176.503ZM937.795 146.137C933.856 138.558 932.596 131.789 934.016 125.83C935.414 119.998 939.178 115.615 945.31 112.683C951.348 109.795 957.168 109.594 962.772 112.078C968.553 114.622 973.407 119.672 977.335 127.228C981.262 134.784 982.533 141.518 981.148 147.431C979.821 153.173 976.138 157.487 970.1 160.375C963.968 163.307 958.066 163.577 952.392 161.183C946.6 158.731 941.735 153.716 937.795 146.137ZM967.291 155.14C969.711 153.983 971.456 152.543 972.525 150.819C973.595 149.096 974.155 147.184 974.207 145.082C974.313 141.223 972.895 136.463 969.952 130.802C965.34 121.929 960.264 117.187 954.725 116.575C952.647 116.358 950.421 116.816 948.048 117.951C943.608 120.074 941.291 123.462 941.098 128.112C940.923 132.177 942.283 136.994 945.178 142.563C951.603 154.925 958.975 159.117 967.291 155.14ZM988.292 133.326L990.699 90.9762L999.016 86.999L996.446 125.056L1013.33 116.983L1008.32 107.348L1015.44 103.943L1020.44 113.579L1024.46 111.658L1027.63 117.758L1023.61 119.679L1029.61 131.221L1022.5 134.625L1016.5 123.083L989.643 135.925L988.292 133.326Z" fill="#D8D8D8"/>
<path d="M559.767 126.726L562.173 84.3767L570.49 80.3994L567.92 118.456L584.8 110.384L579.791 100.748L586.91 97.3439L591.918 106.979L595.936 105.058L599.107 111.158L595.089 113.079L601.089 124.621L593.97 128.025L587.971 116.484L561.118 129.326L559.767 126.726ZM599.554 96.3601C595.615 88.7812 594.355 82.0123 595.775 76.0536C597.173 70.221 600.937 65.8385 607.069 62.9061C613.107 60.0187 618.928 59.8172 624.531 62.3017C630.312 64.8455 635.166 69.8953 639.094 77.4512C643.021 85.007 644.293 91.7415 642.908 97.6546C641.58 103.396 637.897 107.711 631.859 110.598C625.728 113.53 619.825 113.8 614.152 111.407C608.36 108.955 603.494 103.939 599.554 96.3601ZM629.05 105.363C631.47 104.206 633.215 102.766 634.285 101.043C635.354 99.3195 635.915 97.4069 635.966 95.3051C636.072 91.4461 634.654 86.686 631.711 81.0249C627.099 72.152 622.024 67.41 616.485 66.7988C614.406 66.5811 612.181 67.0397 609.808 68.1744C605.367 70.2979 603.051 73.685 602.858 78.3358C602.683 82.4008 604.042 87.2177 606.937 92.7863C613.363 105.148 620.734 109.341 629.05 105.363ZM650.052 83.5491L652.458 41.1996L660.775 37.2223L658.205 75.2791L675.085 67.2065L670.076 57.5711L677.195 54.1669L682.203 63.8023L686.221 61.881L689.391 67.9812L685.374 69.9024L691.373 81.4441L684.255 84.8484L678.256 73.3067L651.403 86.1486L650.052 83.5491Z" fill="#D8D8D8"/>
<path d="M885.034 506.27L887.441 463.921L895.757 459.943L893.187 498L910.067 489.928L905.059 480.292L912.177 476.888L917.185 486.523L921.203 484.602L924.374 490.702L920.356 492.623L926.356 504.165L919.237 507.569L913.238 496.028L886.385 508.87L885.034 506.27ZM924.822 475.904C920.882 468.325 919.622 461.556 921.042 455.598C922.44 449.765 926.205 445.382 932.336 442.45C938.374 439.563 944.195 439.361 949.798 441.846C955.579 444.389 960.433 449.439 964.361 456.995C968.288 464.551 969.56 471.285 968.175 477.199C966.847 482.94 963.164 487.254 957.127 490.142C950.995 493.074 945.092 493.344 939.419 490.951C933.627 488.498 928.761 483.483 924.822 475.904ZM954.318 484.907C956.737 483.75 958.482 482.31 959.552 480.587C960.621 478.863 961.182 476.951 961.233 474.849C961.339 470.99 959.921 466.23 956.979 460.569C952.366 451.696 947.291 446.954 941.752 446.343C939.673 446.125 937.448 446.584 935.075 447.718C930.635 449.842 928.318 453.229 928.125 457.88C927.95 461.945 929.309 466.762 932.204 472.33C938.63 484.692 946.001 488.885 954.318 484.907ZM975.319 463.093L977.726 420.744L986.042 416.766L983.472 454.823L1000.35 446.75L995.343 437.115L1002.46 433.711L1007.47 443.346L1011.49 441.425L1014.66 447.525L1010.64 449.446L1016.64 460.988L1009.52 464.392L1003.52 452.851L976.67 465.693L975.319 463.093Z" fill="#D8D8D8"/>
<path d="M1280.73 648.488L1283.14 606.139L1291.45 602.162L1288.88 640.218L1305.76 632.146L1300.75 622.51L1307.87 619.106L1312.88 628.742L1316.9 626.82L1320.07 632.92L1316.05 634.842L1322.05 646.383L1314.93 649.788L1308.93 638.246L1282.08 651.088L1280.73 648.488ZM1320.52 618.122C1316.58 610.543 1315.32 603.775 1316.74 597.816C1318.14 591.983 1321.9 587.601 1328.03 584.668C1334.07 581.781 1339.89 581.579 1345.49 584.064C1351.27 586.608 1356.13 591.658 1360.06 599.213C1363.98 606.769 1365.26 613.504 1363.87 619.417C1362.54 625.158 1358.86 629.473 1352.82 632.36C1346.69 635.293 1340.79 635.562 1335.11 633.169C1329.32 630.717 1324.46 625.701 1320.52 618.122ZM1350.01 627.126C1352.43 625.968 1354.18 624.528 1355.25 622.805C1356.32 621.082 1356.88 619.169 1356.93 617.067C1357.03 613.208 1355.62 608.448 1352.67 602.787C1348.06 593.914 1342.99 589.172 1337.45 588.561C1335.37 588.343 1333.14 588.802 1330.77 589.937C1326.33 592.06 1324.01 595.447 1323.82 600.098C1323.64 604.163 1325 608.98 1327.9 614.549C1334.33 626.911 1341.7 631.103 1350.01 627.126ZM1371.01 605.311L1373.42 562.962L1381.74 558.985L1379.17 597.041L1396.05 588.969L1391.04 579.333L1398.16 575.929L1403.17 585.564L1407.18 583.643L1410.35 589.743L1406.34 591.665L1412.34 603.206L1405.22 606.611L1399.22 595.069L1372.37 607.911L1371.01 605.311Z" fill="#D8D8D8"/>
<path d="M1555.03 310.721L1557.44 268.371L1565.75 264.394L1563.18 302.451L1580.06 294.378L1575.05 284.743L1582.17 281.338L1587.18 290.974L1591.2 289.052L1594.37 295.153L1590.35 297.074L1596.35 308.616L1589.23 312.02L1583.23 300.478L1556.38 313.32L1555.03 310.721ZM1594.82 280.354C1590.88 272.776 1589.62 266.007 1591.04 260.048C1592.43 254.215 1596.2 249.833 1602.33 246.901C1608.37 244.013 1614.19 243.812 1619.79 246.296C1625.57 248.84 1630.43 253.89 1634.36 261.446C1638.28 269.001 1639.55 275.736 1638.17 281.649C1636.84 287.39 1633.16 291.705 1627.12 294.592C1620.99 297.525 1615.09 297.794 1609.41 295.401C1603.62 292.949 1598.76 287.933 1594.82 280.354ZM1624.31 289.358C1626.73 288.201 1628.48 286.76 1629.55 285.037C1630.62 283.314 1631.18 281.401 1631.23 279.299C1631.33 275.44 1629.92 270.68 1626.97 265.019C1622.36 256.146 1617.29 251.404 1611.75 250.793C1609.67 250.576 1607.44 251.034 1605.07 252.169C1600.63 254.292 1598.31 257.679 1598.12 262.33C1597.94 266.395 1599.3 271.212 1602.2 276.781C1608.62 289.143 1616 293.335 1624.31 289.358ZM1645.31 267.543L1647.72 225.194L1656.04 221.217L1653.47 259.273L1670.35 251.201L1665.34 241.566L1672.46 238.161L1677.46 247.797L1681.48 245.875L1684.65 251.976L1680.64 253.897L1686.64 265.438L1679.52 268.843L1673.52 257.301L1646.66 270.143L1645.31 267.543Z" fill="#D8D8D8"/>
<path d="M1206.59 863.593L1209 821.243L1217.32 817.266L1214.75 855.323L1231.63 847.25L1226.62 837.615L1233.74 834.211L1238.75 843.846L1242.76 841.925L1245.93 848.025L1241.92 849.946L1247.92 861.488L1240.8 864.892L1234.8 853.35L1207.95 866.192L1206.59 863.593ZM1246.38 833.227C1242.44 825.648 1241.18 818.879 1242.6 812.92C1244 807.088 1247.76 802.705 1253.9 799.773C1259.93 796.885 1265.76 796.684 1271.36 799.168C1277.14 801.712 1281.99 806.762 1285.92 814.318C1289.85 821.874 1291.12 828.608 1289.73 834.521C1288.41 840.263 1284.72 844.577 1278.69 847.465C1272.56 850.397 1266.65 850.667 1260.98 848.273C1255.19 845.821 1250.32 840.806 1246.38 833.227ZM1275.88 842.23C1278.3 841.073 1280.04 839.633 1281.11 837.909C1282.18 836.186 1282.74 834.274 1282.79 832.172C1282.9 828.313 1281.48 823.553 1278.54 817.892C1273.93 809.019 1268.85 804.277 1263.31 803.666C1261.23 803.448 1259.01 803.906 1256.64 805.041C1252.19 807.165 1249.88 810.552 1249.68 815.202C1249.51 819.268 1250.87 824.084 1253.76 829.653C1260.19 842.015 1267.56 846.207 1275.88 842.23ZM1296.88 820.416L1299.29 778.066L1307.6 774.089L1305.03 812.146L1321.91 804.073L1316.9 794.438L1324.02 791.034L1329.03 800.669L1333.05 798.748L1336.22 804.848L1332.2 806.769L1338.2 818.311L1331.08 821.715L1325.08 810.173L1298.23 823.015L1296.88 820.416Z" fill="#D8D8D8"/>
<path d="M1371.54 1047.59L1373.95 1005.24L1382.27 1001.26L1379.7 1039.32L1396.58 1031.24L1391.57 1021.61L1398.69 1018.21L1403.7 1027.84L1407.71 1025.92L1410.88 1032.02L1406.87 1033.94L1412.87 1045.48L1405.75 1048.89L1399.75 1037.35L1372.9 1050.19L1371.54 1047.59ZM1411.33 1017.22C1407.39 1009.64 1406.13 1002.87 1407.55 996.915C1408.95 991.082 1412.72 986.7 1418.85 983.767C1424.88 980.88 1430.71 980.679 1436.31 983.163C1442.09 985.707 1446.94 990.757 1450.87 998.313C1454.8 1005.87 1456.07 1012.6 1454.69 1018.52C1453.36 1024.26 1449.67 1028.57 1443.64 1031.46C1437.51 1034.39 1431.6 1034.66 1425.93 1032.27C1420.14 1029.82 1415.27 1024.8 1411.33 1017.22ZM1440.83 1026.22C1443.25 1025.07 1444.99 1023.63 1446.06 1021.9C1447.13 1020.18 1447.69 1018.27 1447.74 1016.17C1447.85 1012.31 1446.43 1007.55 1443.49 1001.89C1438.88 993.013 1433.8 988.271 1428.26 987.66C1426.18 987.442 1423.96 987.901 1421.59 989.036C1417.15 991.159 1414.83 994.546 1414.64 999.197C1414.46 1003.26 1415.82 1008.08 1418.71 1013.65C1425.14 1026.01 1432.51 1030.2 1440.83 1026.22ZM1461.83 1004.41L1464.24 962.061L1472.55 958.084L1469.98 996.14L1486.86 988.068L1481.85 978.432L1488.97 975.028L1493.98 984.664L1498 982.742L1501.17 988.842L1497.15 990.764L1503.15 1002.31L1496.03 1005.71L1490.03 994.168L1463.18 1007.01L1461.83 1004.41Z" fill="#D8D8D8"/>
<path d="M868.353 1049.37L870.76 1007.02L879.077 1003.04L876.507 1041.1L893.387 1033.02L888.378 1023.39L895.497 1019.98L900.505 1029.62L904.522 1027.7L907.693 1033.8L903.676 1035.72L909.675 1047.26L902.557 1050.66L896.557 1039.12L869.704 1051.96L868.353 1049.37ZM908.141 1019C904.202 1011.42 902.942 1004.65 904.362 998.693C905.76 992.86 909.524 988.477 915.656 985.545C921.694 982.658 927.514 982.456 933.118 984.941C938.899 987.484 943.753 992.534 947.681 1000.09C951.608 1007.65 952.879 1014.38 951.494 1020.29C950.167 1026.03 946.484 1030.35 940.446 1033.24C934.314 1036.17 928.412 1036.44 922.738 1034.05C916.946 1031.59 912.081 1026.58 908.141 1019ZM937.637 1028C940.057 1026.85 941.802 1025.4 942.871 1023.68C943.941 1021.96 944.501 1020.05 944.553 1017.94C944.659 1014.08 943.241 1009.32 940.298 1003.66C935.686 994.791 930.61 990.049 925.071 989.438C922.993 989.22 920.767 989.679 918.394 990.813C913.954 992.937 911.637 996.324 911.444 1000.97C911.269 1005.04 912.629 1009.86 915.524 1015.43C921.949 1027.79 929.321 1031.98 937.637 1028ZM958.638 1006.19L961.045 963.839L969.362 959.861L966.792 997.918L983.672 989.845L978.663 980.21L985.782 976.806L990.79 986.441L994.807 984.52L997.978 990.62L993.961 992.541L999.96 1004.08L992.842 1007.49L986.842 995.946L959.989 1008.79L958.638 1006.19Z" fill="#D8D8D8"/>
<path d="M405.01 1058.25L407.417 1015.9L415.733 1011.93L413.163 1049.98L430.043 1041.91L425.035 1032.28L432.153 1028.87L437.162 1038.51L441.179 1036.59L444.35 1042.69L440.332 1044.61L446.332 1056.15L439.213 1059.55L433.214 1048.01L406.361 1060.85L405.01 1058.25ZM444.798 1027.89C440.858 1020.31 439.599 1013.54 441.019 1007.58C442.416 1001.75 446.181 997.366 452.313 994.433C458.35 991.546 464.171 991.345 469.774 993.829C475.555 996.373 480.41 1001.42 484.337 1008.98C488.265 1016.53 489.536 1023.27 488.151 1029.18C486.823 1034.92 483.14 1039.24 477.103 1042.13C470.971 1045.06 465.068 1045.33 459.395 1042.93C453.603 1040.48 448.737 1035.47 444.798 1027.89ZM474.294 1036.89C476.714 1035.73 478.458 1034.29 479.528 1032.57C480.597 1030.85 481.158 1028.93 481.209 1026.83C481.316 1022.97 479.897 1018.21 476.955 1012.55C472.343 1003.68 467.267 998.937 461.728 998.326C459.649 998.108 457.424 998.567 455.051 999.702C450.611 1001.83 448.294 1005.21 448.101 1009.86C447.926 1013.93 449.286 1018.75 452.18 1024.31C458.606 1036.68 465.977 1040.87 474.294 1036.89ZM495.295 1015.08L497.702 972.727L506.018 968.75L503.448 1006.81L520.328 998.734L515.32 989.098L522.438 985.694L527.447 995.33L531.464 993.408L534.635 999.509L530.617 1001.43L536.617 1012.97L529.498 1016.38L523.499 1004.83L496.646 1017.68L495.295 1015.08Z" fill="#D8D8D8"/>
<path d="M1555.95 589.823L1558.36 547.474L1566.68 543.497L1564.11 581.553L1580.99 573.481L1575.98 563.845L1583.1 560.441L1588.11 570.076L1592.12 568.155L1595.29 574.255L1591.28 576.177L1597.28 587.718L1590.16 591.123L1584.16 579.581L1557.31 592.423L1555.95 589.823ZM1595.74 559.457C1591.8 551.878 1590.54 545.11 1591.96 539.151C1593.36 533.318 1597.13 528.936 1603.26 526.003C1609.3 523.116 1615.12 522.914 1620.72 525.399C1626.5 527.943 1631.35 532.993 1635.28 540.548C1639.21 548.104 1640.48 554.839 1639.1 560.752C1637.77 566.493 1634.09 570.808 1628.05 573.695C1621.92 576.628 1616.01 576.897 1610.34 574.504C1604.55 572.052 1599.68 567.036 1595.74 559.457ZM1625.24 568.461C1627.66 567.303 1629.4 565.863 1630.47 564.14C1631.54 562.417 1632.1 560.504 1632.15 558.402C1632.26 554.543 1630.84 549.783 1627.9 544.122C1623.29 535.249 1618.21 530.507 1612.67 529.896C1610.59 529.678 1608.37 530.137 1606 531.272C1601.56 533.395 1599.24 536.782 1599.05 541.433C1598.87 545.498 1600.23 550.315 1603.13 555.884C1609.55 568.245 1616.92 572.438 1625.24 568.461ZM1646.24 546.646L1648.65 504.297L1656.96 500.32L1654.39 538.376L1671.27 530.304L1666.26 520.668L1673.38 517.264L1678.39 526.899L1682.41 524.978L1685.58 531.078L1681.56 533L1687.56 544.541L1680.44 547.946L1674.44 536.404L1647.59 549.246L1646.24 546.646Z" fill="#D8D8D8"/>
<path d="M1554.6 880.657L1557.01 838.307L1565.32 834.33L1562.75 872.387L1579.63 864.314L1574.63 854.679L1581.74 851.275L1586.75 860.91L1590.77 858.989L1593.94 865.089L1589.92 867.01L1595.92 878.552L1588.8 881.956L1582.8 870.414L1555.95 883.256L1554.6 880.657ZM1594.39 850.291C1590.45 842.712 1589.19 835.943 1590.61 829.984C1592.01 824.152 1595.77 819.769 1601.9 816.837C1607.94 813.949 1613.76 813.748 1619.36 816.232C1625.15 818.776 1630 823.826 1633.93 831.382C1637.86 838.938 1639.13 845.672 1637.74 851.585C1636.41 857.327 1632.73 861.641 1626.69 864.529C1620.56 867.461 1614.66 867.731 1608.99 865.337C1603.19 862.885 1598.33 857.87 1594.39 850.291ZM1623.88 859.294C1626.3 858.137 1628.05 856.697 1629.12 854.973C1630.19 853.25 1630.75 851.338 1630.8 849.236C1630.91 845.377 1629.49 840.617 1626.55 834.956C1621.93 826.083 1616.86 821.341 1611.32 820.73C1609.24 820.512 1607.01 820.97 1604.64 822.105C1600.2 824.229 1597.88 827.616 1597.69 832.266C1597.52 836.331 1598.88 841.148 1601.77 846.717C1608.2 859.079 1615.57 863.271 1623.88 859.294ZM1644.89 837.48L1647.29 795.13L1655.61 791.153L1653.04 829.21L1669.92 821.137L1664.91 811.502L1672.03 808.098L1677.04 817.733L1681.05 815.812L1684.23 821.912L1680.21 823.833L1686.21 835.375L1679.09 838.779L1673.09 827.237L1646.24 840.079L1644.89 837.48Z" fill="#D8D8D8"/>
<path d="M45.5551 1047.95L47.962 1005.6L56.2786 1001.62L53.7084 1039.68L70.5883 1031.61L65.5799 1021.97L72.6984 1018.57L77.7068 1028.2L81.7242 1026.28L84.895 1032.38L80.8777 1034.3L86.877 1045.84L79.7585 1049.25L73.7592 1037.71L46.9063 1050.55L45.5551 1047.95ZM85.343 1017.58C81.4035 1010 80.1437 1003.23 81.5638 997.276C82.9613 991.443 86.726 987.061 92.8578 984.128C98.8956 981.241 104.716 981.039 110.32 983.524C116.101 986.068 120.955 991.118 124.882 998.673C128.81 1006.23 130.081 1012.96 128.696 1018.88C127.368 1024.62 123.686 1028.93 117.648 1031.82C111.516 1034.75 105.614 1035.02 99.9402 1032.63C94.1482 1030.18 89.2825 1025.16 85.343 1017.58ZM114.839 1026.59C117.259 1025.43 119.004 1023.99 120.073 1022.26C121.143 1020.54 121.703 1018.63 121.755 1016.53C121.861 1012.67 120.443 1007.91 117.5 1002.25C112.888 993.374 107.812 988.632 102.273 988.021C100.195 987.803 97.969 988.262 95.5962 989.397C91.156 991.52 88.8392 994.907 88.646 999.558C88.471 1003.62 89.8308 1008.44 92.7254 1014.01C99.1511 1026.37 106.522 1030.56 114.839 1026.59ZM135.84 1004.77L138.247 962.422L146.564 958.445L143.993 996.501L160.873 988.429L155.865 978.793L162.983 975.389L167.992 985.024L172.009 983.103L175.18 989.203L171.163 991.125L177.162 1002.67L170.043 1006.07L164.044 994.529L137.191 1007.37L135.84 1004.77Z" fill="#D8D8D8"/>
<rect x="493" y="180" width="179" height="192" fill="white"/>
</svg>
