<svg width="1920" height="1080" viewBox="0 0 1920 1080" fill="none" xmlns="http://www.w3.org/2000/svg">
<path d="M631.493 910.957C635.157 910.32 639.273 908.924 643.842 906.767C648.41 904.61 651.484 902.267 653.063 899.738C654.654 897.174 654.618 894.314 652.956 891.157C651.439 888.277 649.346 886.647 646.676 886.268C643.579 885.802 639.369 886.826 634.047 889.338L624.192 893.991L611.962 870.764L640.963 857.073L644.384 863.571L622.165 874.06L627.916 884.982L632.049 883.031C639.185 879.663 644.972 878.34 649.411 879.064C653.98 879.813 657.612 882.745 660.305 887.86C662.671 892.354 662.886 896.726 660.949 900.978C658.841 905.685 654.231 909.717 647.119 913.074C641.914 915.531 637.883 917.06 635.024 917.662L631.493 910.957ZM664.787 875.431C660.807 867.873 659.52 861.129 660.926 855.2C662.31 849.397 666.076 845.045 672.222 842.143C678.274 839.286 684.117 839.102 689.751 841.593C695.563 844.143 700.453 849.185 704.42 856.72C708.388 864.255 709.686 870.964 708.315 876.848C707 882.56 703.317 886.845 697.265 889.703C691.119 892.604 685.194 892.855 679.49 890.455C673.667 887.997 668.766 882.989 664.787 875.431ZM694.428 884.482C696.854 883.337 698.6 881.908 699.669 880.196C700.737 878.483 701.293 876.58 701.338 874.488C701.432 870.646 699.993 865.902 697.02 860.257C692.361 851.408 687.25 846.672 681.687 846.047C679.6 845.824 677.367 846.274 674.988 847.397C670.538 849.498 668.223 852.864 668.044 857.494C667.881 861.541 669.262 866.341 672.186 871.894C678.678 884.222 686.091 888.418 694.428 884.482ZM713.039 852.651C709.059 845.093 707.773 838.35 709.179 832.421C710.563 826.617 714.328 822.265 720.475 819.363C726.527 816.506 732.37 816.323 738.003 818.813C743.815 821.363 748.705 826.405 752.673 833.94C756.64 841.475 757.938 848.184 756.567 854.068C755.253 859.781 751.57 864.066 745.518 866.923C739.371 869.825 733.446 870.076 727.743 867.676C721.92 865.217 717.019 860.209 713.039 852.651ZM742.681 861.703C745.106 860.558 746.853 859.129 747.921 857.416C748.989 855.703 749.546 853.801 749.591 851.708C749.685 847.866 748.245 843.122 745.273 837.477C740.614 828.629 735.503 823.892 729.94 823.267C727.852 823.044 725.62 823.494 723.241 824.617C718.79 826.718 716.475 830.084 716.297 834.714C716.134 838.761 717.515 843.561 720.439 849.114C726.93 861.442 734.344 865.638 742.681 861.703Z" fill="url(#paint0_linear_88_6)" fill-opacity="0.2"/>
<path d="M1560.96 895.163C1564.62 894.526 1568.74 893.13 1573.31 890.973C1577.88 888.816 1580.95 886.473 1582.53 883.944C1584.12 881.38 1584.08 878.52 1582.42 875.363C1580.91 872.483 1578.81 870.853 1576.14 870.474C1573.05 870.008 1568.84 871.032 1563.51 873.544L1553.66 878.197L1541.43 854.97L1570.43 841.279L1573.85 847.777L1551.63 858.266L1557.38 869.188L1561.52 867.237C1568.65 863.869 1574.44 862.546 1578.88 863.27C1583.45 864.019 1587.08 866.951 1589.77 872.066C1592.14 876.56 1592.35 880.932 1590.42 885.184C1588.31 889.891 1583.7 893.923 1576.59 897.28C1571.38 899.737 1567.35 901.266 1564.49 901.868L1560.96 895.163ZM1594.25 859.637C1590.27 852.079 1588.99 845.335 1590.39 839.407C1591.78 833.603 1595.54 829.251 1601.69 826.349C1607.74 823.492 1613.58 823.308 1619.22 825.799C1625.03 828.349 1629.92 833.391 1633.89 840.926C1637.85 848.461 1639.15 855.17 1637.78 861.054C1636.47 866.767 1632.78 871.051 1626.73 873.909C1620.59 876.81 1614.66 877.061 1608.96 874.661C1603.13 872.203 1598.23 867.195 1594.25 859.637ZM1623.89 868.688C1626.32 867.543 1628.07 866.114 1629.14 864.402C1630.2 862.689 1630.76 860.786 1630.81 858.694C1630.9 854.852 1629.46 850.108 1626.49 844.463C1621.83 835.614 1616.72 830.878 1611.15 830.253C1609.07 830.03 1606.83 830.48 1604.46 831.603C1600 833.704 1597.69 837.07 1597.51 841.7C1597.35 845.747 1598.73 850.547 1601.65 856.1C1608.14 868.428 1615.56 872.624 1623.89 868.688ZM1642.51 836.857C1638.53 829.299 1637.24 822.556 1638.65 816.627C1640.03 810.824 1643.8 806.471 1649.94 803.569C1655.99 800.712 1661.84 800.529 1667.47 803.019C1673.28 805.569 1678.17 810.612 1682.14 818.146C1686.11 825.681 1687.41 832.39 1686.03 838.274C1684.72 843.987 1681.04 848.272 1674.98 851.129C1668.84 854.031 1662.91 854.282 1657.21 851.882C1651.39 849.423 1646.49 844.415 1642.51 836.857ZM1672.15 845.909C1674.57 844.764 1676.32 843.335 1677.39 841.622C1678.46 839.909 1679.01 838.007 1679.06 835.914C1679.15 832.072 1677.71 827.328 1674.74 821.683C1670.08 812.835 1664.97 808.098 1659.41 807.473C1657.32 807.25 1655.09 807.7 1652.71 808.823C1648.26 810.924 1645.94 814.29 1645.76 818.92C1645.6 822.967 1646.98 827.767 1649.91 833.32C1656.4 845.648 1663.81 849.844 1672.15 845.909Z" fill="url(#paint1_linear_88_6)" fill-opacity="0.2"/>
<path d="M1775.95 737.221C1779.62 736.585 1783.73 735.188 1788.3 733.032C1792.87 730.875 1795.94 728.532 1797.52 726.003C1799.11 723.439 1799.08 720.579 1797.41 717.422C1795.9 714.542 1793.8 712.912 1791.13 712.532C1788.04 712.067 1783.83 713.091 1778.51 715.603L1768.65 720.256L1756.42 697.029L1785.42 683.338L1788.84 689.836L1766.62 700.325L1772.37 711.247L1776.51 709.296C1783.64 705.927 1789.43 704.605 1793.87 705.329C1798.44 706.078 1802.07 709.01 1804.76 714.125C1807.13 718.618 1807.34 722.991 1805.41 727.242C1803.3 731.949 1798.69 735.981 1791.58 739.339C1786.37 741.796 1782.34 743.325 1779.48 743.927L1775.95 737.221ZM1809.24 701.695C1805.27 694.137 1803.98 687.394 1805.38 681.465C1806.77 675.662 1810.53 671.309 1816.68 668.408C1822.73 665.551 1828.58 665.367 1834.21 667.857C1840.02 670.407 1844.91 675.45 1848.88 682.985C1852.85 690.52 1854.14 697.229 1852.77 703.112C1851.46 708.825 1847.78 713.11 1841.72 715.967C1835.58 718.869 1829.65 719.12 1823.95 716.72C1818.13 714.262 1813.22 709.253 1809.24 701.695ZM1838.89 710.747C1841.31 709.602 1843.06 708.173 1844.13 706.46C1845.2 704.748 1845.75 702.845 1845.8 700.753C1845.89 696.91 1844.45 692.167 1841.48 686.521C1836.82 677.673 1831.71 672.936 1826.15 672.312C1824.06 672.089 1821.83 672.539 1819.45 673.661C1815 675.763 1812.68 679.128 1812.5 683.758C1812.34 687.806 1813.72 692.606 1816.64 698.159C1823.14 710.487 1830.55 714.683 1838.89 710.747ZM1857.5 678.916C1853.52 671.358 1852.23 664.614 1853.64 658.686C1855.02 652.882 1858.79 648.53 1864.93 645.628C1870.99 642.771 1876.83 642.588 1882.46 645.078C1888.27 647.628 1893.16 652.67 1897.13 660.205C1901.1 667.74 1902.4 674.449 1901.03 680.333C1899.71 686.046 1896.03 690.331 1889.98 693.188C1883.83 696.089 1877.9 696.34 1872.2 693.941C1866.38 691.482 1861.48 686.474 1857.5 678.916ZM1887.14 687.967C1889.56 686.822 1891.31 685.393 1892.38 683.681C1893.45 681.968 1894 680.065 1894.05 677.973C1894.14 674.131 1892.7 669.387 1889.73 663.742C1885.07 654.893 1879.96 650.157 1874.4 649.532C1872.31 649.309 1870.08 649.759 1867.7 650.882C1863.25 652.983 1860.93 656.349 1860.75 660.979C1860.59 665.026 1861.97 669.826 1864.9 675.379C1871.39 687.707 1878.8 691.903 1887.14 687.967Z" fill="url(#paint2_linear_88_6)" fill-opacity="0.2"/>
<path d="M1763.9 446.785C1767.57 446.148 1771.68 444.752 1776.25 442.595C1780.82 440.438 1783.9 438.095 1785.47 435.566C1787.07 433.003 1787.03 430.142 1785.37 426.986C1783.85 424.105 1781.76 422.475 1779.09 422.096C1775.99 421.63 1771.78 422.654 1766.46 425.166L1756.6 429.819L1744.37 406.592L1773.37 392.901L1776.8 399.399L1754.58 409.888L1760.33 420.811L1764.46 418.859C1771.6 415.491 1777.38 414.169 1781.82 414.892C1786.39 415.641 1790.02 418.573 1792.72 423.689C1795.08 428.182 1795.3 432.554 1793.36 436.806C1791.25 441.513 1786.64 445.545 1779.53 448.902C1774.33 451.359 1770.29 452.888 1767.44 453.49L1763.9 446.785ZM1797.2 411.259C1793.22 403.701 1791.93 396.957 1793.34 391.029C1794.72 385.225 1798.49 380.873 1804.63 377.971C1810.69 375.114 1816.53 374.931 1822.16 377.421C1827.97 379.971 1832.86 385.013 1836.83 392.548C1840.8 400.083 1842.1 406.792 1840.73 412.676C1839.41 418.389 1835.73 422.674 1829.68 425.531C1823.53 428.432 1817.61 428.683 1811.9 426.284C1806.08 423.825 1801.18 418.817 1797.2 411.259ZM1826.84 420.31C1829.26 419.165 1831.01 417.736 1832.08 416.024C1833.15 414.311 1833.7 412.408 1833.75 410.316C1833.84 406.474 1832.4 401.73 1829.43 396.085C1824.77 387.236 1819.66 382.5 1814.1 381.875C1812.01 381.652 1809.78 382.102 1807.4 383.225C1802.95 385.326 1800.63 388.692 1800.46 393.322C1800.29 397.369 1801.67 402.169 1804.6 407.722C1811.09 420.05 1818.5 424.246 1826.84 420.31ZM1845.45 388.479C1841.47 380.921 1840.18 374.178 1841.59 368.249C1842.97 362.446 1846.74 358.093 1852.89 355.191C1858.94 352.334 1864.78 352.151 1870.41 354.641C1876.23 357.191 1881.12 362.234 1885.08 369.768C1889.05 377.303 1890.35 384.013 1888.98 389.896C1887.66 395.609 1883.98 399.894 1877.93 402.751C1871.78 405.653 1865.86 405.904 1860.15 403.504C1854.33 401.045 1849.43 396.037 1845.45 388.479ZM1875.09 397.531C1877.52 396.386 1879.26 394.957 1880.33 393.244C1881.4 391.531 1881.96 389.629 1882 387.536C1882.1 383.694 1880.66 378.95 1877.68 373.305C1873.03 364.457 1867.91 359.72 1862.35 359.095C1860.26 358.872 1858.03 359.322 1855.65 360.445C1851.2 362.546 1848.89 365.912 1848.71 370.542C1848.55 374.589 1849.93 379.389 1852.85 384.943C1859.34 397.27 1866.76 401.466 1875.09 397.531Z" fill="url(#paint3_linear_88_6)" fill-opacity="0.2"/>
<path d="M1664.75 141.431C1668.41 140.795 1672.53 139.398 1677.1 137.242C1681.67 135.085 1684.74 132.742 1686.32 130.213C1687.91 127.649 1687.87 124.789 1686.21 121.632C1684.69 118.752 1682.6 117.122 1679.93 116.742C1676.83 116.277 1672.63 117.3 1667.3 119.813L1657.45 124.466L1645.22 101.239L1674.22 87.5478L1677.64 94.0457L1655.42 104.535L1661.17 115.457L1665.31 113.506C1672.44 110.137 1678.23 108.815 1682.67 109.539C1687.24 110.288 1690.87 113.22 1693.56 118.335C1695.93 122.828 1696.14 127.201 1694.21 131.452C1692.1 136.159 1687.49 140.191 1680.37 143.549C1675.17 146.006 1671.14 147.535 1668.28 148.137L1664.75 141.431ZM1698.04 105.905C1694.06 98.3475 1692.78 91.6041 1694.18 85.6752C1695.57 79.8719 1699.33 75.5194 1705.48 72.6177C1711.53 69.7605 1717.37 69.5771 1723.01 72.0675C1728.82 74.6174 1733.71 79.6598 1737.68 87.1947C1741.64 94.7296 1742.94 101.439 1741.57 107.322C1740.26 113.035 1736.57 117.32 1730.52 120.177C1724.37 123.079 1718.45 123.33 1712.75 120.93C1706.92 118.472 1702.02 113.463 1698.04 105.905ZM1727.68 114.957C1730.11 113.812 1731.86 112.383 1732.92 110.67C1733.99 108.958 1734.55 107.055 1734.59 104.962C1734.69 101.12 1733.25 96.3767 1730.28 90.7313C1725.62 81.883 1720.51 77.1464 1714.94 76.5215C1712.86 76.2986 1710.62 76.7485 1708.24 77.8714C1703.79 79.9726 1701.48 83.3383 1701.3 87.9684C1701.14 92.0155 1702.52 96.8156 1705.44 102.369C1711.93 114.697 1719.35 118.893 1727.68 114.957ZM1746.29 83.1257C1742.32 75.5678 1741.03 68.8244 1742.43 62.8956C1743.82 57.0922 1747.58 52.7397 1753.73 49.8381C1759.78 46.9809 1765.63 46.7975 1771.26 49.2878C1777.07 51.8378 1781.96 56.8802 1785.93 64.4151C1789.9 71.9499 1791.19 78.6592 1789.82 84.5428C1788.51 90.2555 1784.83 94.5405 1778.77 97.3977C1772.63 100.299 1766.7 100.55 1761 98.1505C1755.18 95.6919 1750.27 90.6837 1746.29 83.1257ZM1775.94 92.1774C1778.36 91.0323 1780.11 89.6034 1781.18 87.8907C1782.25 86.1781 1782.8 84.2754 1782.85 82.1828C1782.94 78.3408 1781.5 73.597 1778.53 67.9516C1773.87 59.1033 1768.76 54.3667 1763.2 53.7418C1761.11 53.5189 1758.88 53.9689 1756.5 55.0918C1752.05 57.193 1749.73 60.5586 1749.55 65.1888C1749.39 69.2358 1750.77 74.0359 1753.69 79.5892C1760.19 91.9169 1767.6 96.1129 1775.94 92.1774Z" fill="url(#paint4_linear_88_6)" fill-opacity="0.2"/>
<path d="M1366.36 225.667C1370.02 225.03 1374.14 223.634 1378.7 221.477C1383.27 219.32 1386.35 216.977 1387.93 214.448C1389.52 211.885 1389.48 209.024 1387.82 205.868C1386.3 202.987 1384.21 201.357 1381.54 200.978C1378.44 200.512 1374.23 201.536 1368.91 204.048L1359.05 208.701L1346.82 185.474L1375.83 171.783L1379.25 178.281L1357.03 188.771L1362.78 199.693L1366.91 197.742C1374.05 194.373 1379.83 193.051 1384.27 193.775C1388.84 194.523 1392.47 197.455 1395.17 202.571C1397.53 207.064 1397.75 211.436 1395.81 215.688C1393.7 220.395 1389.09 224.427 1381.98 227.784C1376.78 230.241 1372.75 231.771 1369.89 232.372L1366.36 225.667ZM1399.65 190.141C1395.67 182.583 1394.38 175.84 1395.79 169.911C1397.17 164.107 1400.94 159.755 1407.08 156.853C1413.14 153.996 1418.98 153.813 1424.61 156.303C1430.43 158.853 1435.32 163.895 1439.28 171.43C1443.25 178.965 1444.55 185.674 1443.18 191.558C1441.86 197.271 1438.18 201.556 1432.13 204.413C1425.98 207.314 1420.06 207.565 1414.35 205.166C1408.53 202.707 1403.63 197.699 1399.65 190.141ZM1429.29 199.192C1431.72 198.047 1433.46 196.619 1434.53 194.906C1435.6 193.193 1436.16 191.291 1436.2 189.198C1436.29 185.356 1434.86 180.612 1431.88 174.967C1427.22 166.118 1422.11 161.382 1416.55 160.757C1414.46 160.534 1412.23 160.984 1409.85 162.107C1405.4 164.208 1403.09 167.574 1402.91 172.204C1402.74 176.251 1404.12 181.051 1407.05 186.604C1413.54 198.932 1420.95 203.128 1429.29 199.192ZM1447.9 167.361C1443.92 159.803 1442.64 153.06 1444.04 147.131C1445.43 141.328 1449.19 136.975 1455.34 134.074C1461.39 131.216 1467.23 131.033 1472.87 133.523C1478.68 136.073 1483.57 141.116 1487.54 148.651C1491.5 156.185 1492.8 162.895 1491.43 168.778C1490.12 174.491 1486.43 178.776 1480.38 181.633C1474.23 184.535 1468.31 184.786 1462.61 182.386C1456.78 179.927 1451.88 174.919 1447.9 167.361ZM1477.54 176.413C1479.97 175.268 1481.72 173.839 1482.78 172.126C1483.85 170.414 1484.41 168.511 1484.45 166.418C1484.55 162.576 1483.11 157.832 1480.14 152.187C1475.48 143.339 1470.37 138.602 1464.8 137.977C1462.72 137.754 1460.48 138.204 1458.1 139.327C1453.65 141.428 1451.34 144.794 1451.16 149.424C1451 153.471 1452.38 158.271 1455.3 163.825C1461.79 176.152 1469.21 180.348 1477.54 176.413Z" fill="url(#paint5_linear_88_6)" fill-opacity="0.2"/>
<path d="M1562.81 334.471C1566.48 333.835 1570.59 332.438 1575.16 330.281C1579.73 328.124 1582.8 325.781 1584.38 323.252C1585.97 320.689 1585.94 317.829 1584.28 314.672C1582.76 311.791 1580.67 310.161 1578 309.782C1574.9 309.316 1570.69 310.34 1565.37 312.853L1555.51 317.505L1543.28 294.278L1572.28 280.587L1575.7 287.085L1553.49 297.575L1559.24 308.497L1563.37 306.546C1570.51 303.177 1576.29 301.855 1580.73 302.579C1585.3 303.327 1588.93 306.259 1591.63 311.375C1593.99 315.868 1594.21 320.24 1592.27 324.492C1590.16 329.199 1585.55 333.231 1578.44 336.588C1573.23 339.045 1569.2 340.575 1566.34 341.176L1562.81 334.471ZM1596.11 298.945C1592.13 291.387 1590.84 284.644 1592.25 278.715C1593.63 272.911 1597.4 268.559 1603.54 265.657C1609.59 262.8 1615.44 262.617 1621.07 265.107C1626.88 267.657 1631.77 272.699 1635.74 280.234C1639.71 287.769 1641.01 294.478 1639.63 300.362C1638.32 306.075 1634.64 310.36 1628.59 313.217C1622.44 316.119 1616.51 316.369 1610.81 313.97C1604.99 311.511 1600.09 306.503 1596.11 298.945ZM1625.75 307.997C1628.17 306.851 1629.92 305.423 1630.99 303.71C1632.06 301.997 1632.61 300.095 1632.66 298.002C1632.75 294.16 1631.31 289.416 1628.34 283.771C1623.68 274.923 1618.57 270.186 1613.01 269.561C1610.92 269.338 1608.69 269.788 1606.31 270.911C1601.86 273.012 1599.54 276.378 1599.36 281.008C1599.2 285.055 1600.58 289.855 1603.51 295.408C1610 307.736 1617.41 311.932 1625.75 307.997ZM1644.36 276.165C1640.38 268.607 1639.09 261.864 1640.5 255.935C1641.88 250.132 1645.65 245.779 1651.79 242.878C1657.85 240.02 1663.69 239.837 1669.32 242.327C1675.14 244.877 1680.03 249.92 1683.99 257.455C1687.96 264.989 1689.26 271.699 1687.89 277.582C1686.57 283.295 1682.89 287.58 1676.84 290.437C1670.69 293.339 1664.77 293.59 1659.06 291.19C1653.24 288.731 1648.34 283.723 1644.36 276.165ZM1674 285.217C1676.43 284.072 1678.17 282.643 1679.24 280.93C1680.31 279.218 1680.87 277.315 1680.91 275.222C1681.01 271.38 1679.57 266.637 1676.59 260.991C1671.93 252.143 1666.82 247.406 1661.26 246.781C1659.17 246.558 1656.94 247.008 1654.56 248.131C1650.11 250.233 1647.8 253.598 1647.62 258.228C1647.45 262.275 1648.84 267.075 1651.76 272.629C1658.25 284.956 1665.66 289.152 1674 285.217Z" fill="url(#paint6_linear_88_6)" fill-opacity="0.2"/>
<path d="M1562.81 608.236C1566.48 607.599 1570.59 606.203 1575.16 604.046C1579.73 601.889 1582.8 599.546 1584.38 597.017C1585.97 594.454 1585.94 591.593 1584.28 588.437C1582.76 585.556 1580.67 583.926 1578 583.547C1574.9 583.081 1570.69 584.105 1565.37 586.617L1555.51 591.27L1543.28 568.043L1572.28 554.352L1575.7 560.85L1553.49 571.339L1559.24 582.262L1563.37 580.31C1570.51 576.942 1576.29 575.62 1580.73 576.344C1585.3 577.092 1588.93 580.024 1591.63 585.14C1593.99 589.633 1594.21 594.005 1592.27 598.257C1590.16 602.964 1585.55 606.996 1578.44 610.353C1573.23 612.81 1569.2 614.34 1566.34 614.941L1562.81 608.236ZM1596.11 572.71C1592.13 565.152 1590.84 558.409 1592.25 552.48C1593.63 546.676 1597.4 542.324 1603.54 539.422C1609.59 536.565 1615.44 536.382 1621.07 538.872C1626.88 541.422 1631.77 546.464 1635.74 553.999C1639.71 561.534 1641.01 568.243 1639.63 574.127C1638.32 579.84 1634.64 584.125 1628.59 586.982C1622.44 589.883 1616.51 590.134 1610.81 587.735C1604.99 585.276 1600.09 580.268 1596.11 572.71ZM1625.75 581.761C1628.17 580.616 1629.92 579.187 1630.99 577.475C1632.06 575.762 1632.61 573.86 1632.66 571.767C1632.75 567.925 1631.31 563.181 1628.34 557.536C1623.68 548.687 1618.57 543.951 1613.01 543.326C1610.92 543.103 1608.69 543.553 1606.31 544.676C1601.86 546.777 1599.54 550.143 1599.36 554.773C1599.2 558.82 1600.58 563.62 1603.51 569.173C1610 581.501 1617.41 585.697 1625.75 581.761ZM1644.36 549.93C1640.38 542.372 1639.09 535.629 1640.5 529.7C1641.88 523.897 1645.65 519.544 1651.79 516.643C1657.85 513.785 1663.69 513.602 1669.32 516.092C1675.14 518.642 1680.03 523.685 1683.99 531.22C1687.96 538.754 1689.26 545.464 1687.89 551.347C1686.57 557.06 1682.89 561.345 1676.84 564.202C1670.69 567.104 1664.77 567.355 1659.06 564.955C1653.24 562.496 1648.34 557.488 1644.36 549.93ZM1674 558.982C1676.43 557.837 1678.17 556.408 1679.24 554.695C1680.31 552.983 1680.87 551.08 1680.91 548.987C1681.01 545.145 1679.57 540.401 1676.59 534.756C1671.93 525.908 1666.82 521.171 1661.26 520.546C1659.17 520.323 1656.94 520.773 1654.56 521.896C1650.11 523.997 1647.8 527.363 1647.62 531.993C1647.45 536.04 1648.84 540.84 1651.76 546.394C1658.25 558.721 1665.66 562.917 1674 558.982Z" fill="url(#paint7_linear_88_6)" fill-opacity="0.2"/>
<path d="M1753.71 1068.9C1757.37 1068.26 1761.49 1066.87 1766.06 1064.71C1770.63 1062.55 1773.7 1060.21 1775.28 1057.68C1776.87 1055.12 1776.84 1052.26 1775.17 1049.1C1773.66 1046.22 1771.56 1044.59 1768.89 1044.21C1765.8 1043.74 1761.59 1044.77 1756.26 1047.28L1746.41 1051.93L1734.18 1028.71L1763.18 1015.01L1766.6 1021.51L1744.38 1032L1750.13 1042.92L1754.27 1040.97C1761.4 1037.6 1767.19 1036.28 1771.63 1037.01C1776.2 1037.75 1779.83 1040.69 1782.52 1045.8C1784.89 1050.3 1785.1 1054.67 1783.17 1058.92C1781.06 1063.63 1776.45 1067.66 1769.34 1071.02C1764.13 1073.47 1760.1 1075 1757.24 1075.6L1753.71 1068.9ZM1787 1033.37C1783.02 1025.81 1781.74 1019.07 1783.14 1013.14C1784.53 1007.34 1788.29 1002.99 1794.44 1000.08C1800.49 997.227 1806.33 997.044 1811.97 999.534C1817.78 1002.08 1822.67 1007.13 1826.64 1014.66C1830.61 1022.2 1831.9 1028.91 1830.53 1034.79C1829.22 1040.5 1825.53 1044.79 1819.48 1047.64C1813.34 1050.55 1807.41 1050.8 1801.71 1048.4C1795.89 1045.94 1790.98 1040.93 1787 1033.37ZM1816.65 1042.42C1819.07 1041.28 1820.82 1039.85 1821.89 1038.14C1822.95 1036.42 1823.51 1034.52 1823.56 1032.43C1823.65 1028.59 1822.21 1023.84 1819.24 1018.2C1814.58 1009.35 1809.47 1004.61 1803.91 1003.99C1801.82 1003.77 1799.58 1004.22 1797.21 1005.34C1792.76 1007.44 1790.44 1010.81 1790.26 1015.44C1790.1 1019.48 1791.48 1024.28 1794.4 1029.84C1800.9 1042.16 1808.31 1046.36 1816.65 1042.42ZM1835.26 1010.59C1831.28 1003.03 1829.99 996.291 1831.4 990.362C1832.78 984.559 1836.55 980.207 1842.69 977.305C1848.74 974.448 1854.59 974.264 1860.22 976.755C1866.03 979.305 1870.92 984.347 1874.89 991.882C1878.86 999.417 1880.16 1006.13 1878.78 1012.01C1877.47 1017.72 1873.79 1022.01 1867.74 1024.86C1861.59 1027.77 1855.66 1028.02 1849.96 1025.62C1844.14 1023.16 1839.24 1018.15 1835.26 1010.59ZM1864.9 1019.64C1867.32 1018.5 1869.07 1017.07 1870.14 1015.36C1871.21 1013.65 1871.76 1011.74 1871.81 1009.65C1871.9 1005.81 1870.46 1001.06 1867.49 995.419C1862.83 986.57 1857.72 981.834 1852.16 981.209C1850.07 980.986 1847.84 981.436 1845.46 982.559C1841.01 984.66 1838.69 988.026 1838.51 992.656C1838.35 996.703 1839.73 1001.5 1842.66 1007.06C1849.15 1019.38 1856.56 1023.58 1864.9 1019.64Z" fill="url(#paint8_linear_88_6)" fill-opacity="0.2"/>
<path d="M1378.4 1060.12C1382.07 1059.49 1386.18 1058.09 1390.75 1055.93C1395.32 1053.78 1398.39 1051.43 1399.97 1048.9C1401.56 1046.34 1401.53 1043.48 1399.87 1040.32C1398.35 1037.44 1396.26 1035.81 1393.59 1035.43C1390.49 1034.97 1386.28 1035.99 1380.96 1038.51L1371.1 1043.16L1358.87 1019.93L1387.87 1006.24L1391.29 1012.74L1369.07 1023.23L1374.83 1034.15L1378.96 1032.2C1386.09 1028.83 1391.88 1027.51 1396.32 1028.23C1400.89 1028.98 1404.52 1031.91 1407.21 1037.03C1409.58 1041.52 1409.8 1045.89 1407.86 1050.14C1405.75 1054.85 1401.14 1058.88 1394.03 1062.24C1388.82 1064.7 1384.79 1066.23 1381.93 1066.83L1378.4 1060.12ZM1411.7 1024.6C1407.72 1017.04 1406.43 1010.3 1407.84 1004.37C1409.22 998.564 1412.99 994.212 1419.13 991.31C1425.18 988.453 1431.03 988.269 1436.66 990.76C1442.47 993.31 1447.36 998.352 1451.33 1005.89C1455.3 1013.42 1456.6 1020.13 1455.22 1026.01C1453.91 1031.73 1450.23 1036.01 1444.17 1038.87C1438.03 1041.77 1432.1 1042.02 1426.4 1039.62C1420.58 1037.16 1415.68 1032.16 1411.7 1024.6ZM1441.34 1033.65C1443.76 1032.5 1445.51 1031.08 1446.58 1029.36C1447.65 1027.65 1448.2 1025.75 1448.25 1023.65C1448.34 1019.81 1446.9 1015.07 1443.93 1009.42C1439.27 1000.58 1434.16 995.839 1428.6 995.214C1426.51 994.991 1424.28 995.441 1421.9 996.564C1417.45 998.665 1415.13 1002.03 1414.95 1006.66C1414.79 1010.71 1416.17 1015.51 1419.1 1021.06C1425.59 1033.39 1433 1037.58 1441.34 1033.65ZM1459.95 1001.82C1455.97 994.26 1454.68 987.517 1456.09 981.588C1457.47 975.784 1461.24 971.432 1467.38 968.53C1473.44 965.673 1479.28 965.49 1484.91 967.98C1490.72 970.53 1495.61 975.572 1499.58 983.107C1503.55 990.642 1504.85 997.351 1503.48 1003.24C1502.16 1008.95 1498.48 1013.23 1492.43 1016.09C1486.28 1018.99 1480.36 1019.24 1474.65 1016.84C1468.83 1014.38 1463.93 1009.38 1459.95 1001.82ZM1489.59 1010.87C1492.02 1009.72 1493.76 1008.3 1494.83 1006.58C1495.9 1004.87 1496.46 1002.97 1496.5 1000.88C1496.59 997.033 1495.15 992.289 1492.18 986.644C1487.52 977.796 1482.41 973.059 1476.85 972.434C1474.76 972.211 1472.53 972.661 1470.15 973.784C1465.7 975.885 1463.38 979.251 1463.21 983.881C1463.04 987.928 1464.42 992.728 1467.35 998.281C1473.84 1010.61 1481.25 1014.81 1489.59 1010.87Z" fill="url(#paint9_linear_88_6)" fill-opacity="0.2"/>
<path d="M875.212 1063.63C878.876 1063 882.992 1061.6 887.56 1059.44C892.129 1057.29 895.203 1054.94 896.782 1052.41C898.372 1049.85 898.337 1046.99 896.674 1043.83C895.158 1040.95 893.065 1039.32 890.395 1038.94C887.298 1038.48 883.088 1039.5 877.766 1042.02L867.91 1046.67L855.68 1023.44L884.681 1009.75L888.103 1016.25L865.884 1026.74L871.635 1037.66L875.768 1035.71C882.903 1032.34 888.691 1031.02 893.129 1031.74C897.699 1032.49 901.33 1035.42 904.024 1040.54C906.39 1045.03 906.605 1049.4 904.668 1053.65C902.56 1058.36 897.949 1062.39 890.837 1065.75C885.633 1068.21 881.601 1069.74 878.743 1070.34L875.212 1063.63ZM908.505 1028.11C904.525 1020.55 903.239 1013.81 904.645 1007.88C906.029 1002.07 909.794 997.721 915.941 994.82C921.993 991.963 927.836 991.779 933.469 994.269C939.281 996.819 944.171 1001.86 948.139 1009.4C952.106 1016.93 953.404 1023.64 952.033 1029.52C950.719 1035.24 947.036 1039.52 940.984 1042.38C934.837 1045.28 928.912 1045.53 923.209 1043.13C917.386 1040.67 912.485 1035.67 908.505 1028.11ZM938.147 1037.16C940.572 1036.01 942.319 1034.59 943.387 1032.87C944.455 1031.16 945.012 1029.26 945.057 1027.16C945.151 1023.32 943.711 1018.58 940.739 1012.93C936.08 1004.09 930.969 999.348 925.406 998.724C923.319 998.501 921.086 998.951 918.707 1000.07C914.256 1002.17 911.941 1005.54 911.763 1010.17C911.6 1014.22 912.981 1019.02 915.905 1024.57C922.396 1036.9 929.81 1041.09 938.147 1037.16ZM956.758 1005.33C952.778 997.77 951.491 991.026 952.898 985.098C954.282 979.294 958.047 974.942 964.193 972.04C970.245 969.183 976.088 968.999 981.722 971.49C987.534 974.04 992.424 979.082 996.391 986.617C1000.36 994.152 1001.66 1000.86 1000.29 1006.74C998.972 1012.46 995.288 1016.74 989.236 1019.6C983.09 1022.5 977.165 1022.75 971.461 1020.35C965.639 1017.89 960.737 1012.89 956.758 1005.33ZM986.399 1014.38C988.825 1013.23 990.572 1011.81 991.64 1010.09C992.708 1008.38 993.265 1006.48 993.309 1004.38C993.403 1000.54 991.964 995.799 988.991 990.154C984.332 981.305 979.221 976.569 973.658 975.944C971.571 975.721 969.338 976.171 966.96 977.294C962.509 979.395 960.194 982.761 960.015 987.391C959.853 991.438 961.234 996.238 964.158 1001.79C970.649 1014.12 978.063 1018.31 986.399 1014.38Z" fill="url(#paint10_linear_88_6)" fill-opacity="0.2"/>
<path d="M1213.45 876.736C1217.12 876.1 1221.23 874.703 1225.8 872.546C1230.37 870.39 1233.44 868.047 1235.02 865.517C1236.61 862.954 1236.58 860.094 1234.92 856.937C1233.4 854.057 1231.31 852.427 1228.64 852.047C1225.54 851.582 1221.33 852.605 1216.01 855.118L1206.15 859.77L1193.92 836.544L1222.92 822.853L1226.34 829.351L1204.12 839.84L1209.88 850.762L1214.01 848.811C1221.14 845.442 1226.93 844.12 1231.37 844.844C1235.94 845.593 1239.57 848.525 1242.26 853.64C1244.63 858.133 1244.85 862.506 1242.91 866.757C1240.8 871.464 1236.19 875.496 1229.08 878.854C1223.87 881.311 1219.84 882.84 1216.98 883.441L1213.45 876.736ZM1246.75 841.21C1242.77 833.652 1241.48 826.909 1242.89 820.98C1244.27 815.177 1248.04 810.824 1254.18 807.923C1260.23 805.065 1266.08 804.882 1271.71 807.372C1277.52 809.922 1282.41 814.965 1286.38 822.5C1290.35 830.034 1291.65 836.744 1290.27 842.627C1288.96 848.34 1285.28 852.625 1279.22 855.482C1273.08 858.384 1267.15 858.635 1261.45 856.235C1255.63 853.776 1250.73 848.768 1246.75 841.21ZM1276.39 850.262C1278.81 849.117 1280.56 847.688 1281.63 845.975C1282.7 844.263 1283.25 842.36 1283.3 840.267C1283.39 836.425 1281.95 831.681 1278.98 826.036C1274.32 817.188 1269.21 812.451 1263.65 811.826C1261.56 811.603 1259.33 812.053 1256.95 813.176C1252.5 815.277 1250.18 818.643 1250 823.273C1249.84 827.32 1251.22 832.12 1254.15 837.674C1260.64 850.001 1268.05 854.197 1276.39 850.262ZM1295 818.431C1291.02 810.873 1289.73 804.129 1291.14 798.2C1292.52 792.397 1296.29 788.045 1302.43 785.143C1308.49 782.286 1314.33 782.102 1319.96 784.593C1325.77 787.143 1330.66 792.185 1334.63 799.72C1338.6 807.255 1339.9 813.964 1338.53 819.848C1337.21 825.56 1333.53 829.845 1327.48 832.703C1321.33 835.604 1315.41 835.855 1309.7 833.455C1303.88 830.997 1298.98 825.988 1295 818.431ZM1324.64 827.482C1327.07 826.337 1328.81 824.908 1329.88 823.196C1330.95 821.483 1331.51 819.58 1331.55 817.488C1331.64 813.646 1330.2 808.902 1327.23 803.256C1322.57 794.408 1317.46 789.672 1311.9 789.047C1309.81 788.824 1307.58 789.274 1305.2 790.397C1300.75 792.498 1298.43 795.863 1298.26 800.494C1298.09 804.541 1299.47 809.341 1302.4 814.894C1308.89 827.222 1316.3 831.418 1324.64 827.482Z" fill="url(#paint11_linear_88_6)" fill-opacity="0.2"/>
<path d="M1287.59 667.025C1291.25 666.389 1295.37 664.992 1299.94 662.835C1304.5 660.679 1307.58 658.336 1309.16 655.806C1310.75 653.243 1310.71 650.383 1309.05 647.226C1307.53 644.346 1305.44 642.716 1302.77 642.336C1299.67 641.871 1295.46 642.894 1290.14 645.407L1280.29 650.06L1268.06 626.833L1297.06 613.142L1300.48 619.64L1278.26 630.129L1284.01 641.051L1288.14 639.1C1295.28 635.731 1301.07 634.409 1305.51 635.133C1310.07 635.882 1313.71 638.814 1316.4 643.929C1318.77 648.422 1318.98 652.795 1317.04 657.046C1314.94 661.753 1310.33 665.785 1303.21 669.143C1298.01 671.6 1293.98 673.129 1291.12 673.731L1287.59 667.025ZM1320.88 631.499C1316.9 623.941 1315.61 617.198 1317.02 611.269C1318.4 605.466 1322.17 601.113 1328.32 598.212C1334.37 595.354 1340.21 595.171 1345.85 597.661C1351.66 600.211 1356.55 605.254 1360.51 612.789C1364.48 620.323 1365.78 627.033 1364.41 632.916C1363.09 638.629 1359.41 642.914 1353.36 645.771C1347.21 648.673 1341.29 648.924 1335.58 646.524C1329.76 644.065 1324.86 639.057 1320.88 631.499ZM1350.52 640.551C1352.95 639.406 1354.69 637.977 1355.76 636.264C1356.83 634.552 1357.39 632.649 1357.43 630.556C1357.53 626.714 1356.09 621.971 1353.11 616.325C1348.46 607.477 1343.34 602.74 1337.78 602.115C1335.69 601.892 1333.46 602.342 1331.08 603.465C1326.63 605.566 1324.32 608.932 1324.14 613.562C1323.98 617.609 1325.36 622.409 1328.28 627.963C1334.77 640.29 1342.19 644.486 1350.52 640.551ZM1369.13 608.72C1365.15 601.162 1363.87 594.418 1365.27 588.489C1366.66 582.686 1370.42 578.334 1376.57 575.432C1382.62 572.575 1388.46 572.391 1394.1 574.882C1399.91 577.432 1404.8 582.474 1408.77 590.009C1412.73 597.544 1414.03 604.253 1412.66 610.137C1411.35 615.849 1407.66 620.134 1401.61 622.992C1395.47 625.893 1389.54 626.144 1383.84 623.744C1378.01 621.286 1373.11 616.278 1369.13 608.72ZM1398.77 617.771C1401.2 616.626 1402.95 615.197 1404.02 613.485C1405.08 611.772 1405.64 609.869 1405.69 607.777C1405.78 603.935 1404.34 599.191 1401.37 593.545C1396.71 584.697 1391.6 579.961 1386.03 579.336C1383.95 579.113 1381.71 579.563 1379.34 580.686C1374.88 582.787 1372.57 586.153 1372.39 590.783C1372.23 594.83 1373.61 599.63 1376.53 605.183C1383.02 617.511 1390.44 621.707 1398.77 617.771Z" fill="url(#paint12_linear_88_6)" fill-opacity="0.2"/>
<path d="M1115.22 314.289C1118.89 313.653 1123 312.257 1127.57 310.1C1132.14 307.943 1135.21 305.6 1136.79 303.071C1138.38 300.507 1138.35 297.647 1136.69 294.49C1135.17 291.61 1133.08 289.98 1130.41 289.601C1127.31 289.135 1123.1 290.159 1117.78 292.671L1107.92 297.324L1095.69 274.097L1124.69 260.406L1128.11 266.904L1105.9 277.393L1111.65 288.315L1115.78 286.364C1122.92 282.996 1128.7 281.673 1133.14 282.397C1137.71 283.146 1141.34 286.078 1144.04 291.193C1146.4 295.687 1146.62 300.059 1144.68 304.311C1142.57 309.017 1137.96 313.05 1130.85 316.407C1125.64 318.864 1121.61 320.393 1118.75 320.995L1115.22 314.289ZM1148.52 278.764C1144.54 271.206 1143.25 264.462 1144.66 258.533C1146.04 252.73 1149.81 248.378 1155.95 245.476C1162 242.619 1167.85 242.435 1173.48 244.926C1179.29 247.476 1184.18 252.518 1188.15 260.053C1192.12 267.588 1193.42 274.297 1192.04 280.181C1190.73 285.893 1187.05 290.178 1181 293.035C1174.85 295.937 1168.92 296.188 1163.22 293.788C1157.4 291.33 1152.5 286.321 1148.52 278.764ZM1178.16 287.815C1180.58 286.67 1182.33 285.241 1183.4 283.529C1184.47 281.816 1185.02 279.913 1185.07 277.821C1185.16 273.979 1183.72 269.235 1180.75 263.589C1176.09 254.741 1170.98 250.005 1165.42 249.38C1163.33 249.157 1161.1 249.607 1158.72 250.73C1154.27 252.831 1151.95 256.196 1151.77 260.827C1151.61 264.874 1152.99 269.674 1155.92 275.227C1162.41 287.555 1169.82 291.751 1178.16 287.815ZM1196.77 255.984C1192.79 248.426 1191.5 241.683 1192.91 235.754C1194.29 229.95 1198.06 225.598 1204.21 222.696C1210.26 219.839 1216.1 219.656 1221.73 222.146C1227.55 224.696 1232.44 229.738 1236.4 237.273C1240.37 244.808 1241.67 251.517 1240.3 257.401C1238.98 263.114 1235.3 267.399 1229.25 270.256C1223.1 273.158 1217.18 273.408 1211.47 271.009C1205.65 268.55 1200.75 263.542 1196.77 255.984ZM1226.41 265.036C1228.84 263.89 1230.58 262.462 1231.65 260.749C1232.72 259.036 1233.28 257.134 1233.32 255.041C1233.42 251.199 1231.98 246.455 1229 240.81C1224.34 231.961 1219.23 227.225 1213.67 226.6C1211.58 226.377 1209.35 226.827 1206.97 227.95C1202.52 230.051 1200.21 233.417 1200.03 238.047C1199.86 242.094 1201.25 246.894 1204.17 252.447C1210.66 264.775 1218.07 268.971 1226.41 265.036Z" fill="url(#paint13_linear_88_6)" fill-opacity="0.2"/>
<path d="M904.866 200.221C908.53 199.584 912.646 198.188 917.214 196.031C921.783 193.874 924.857 191.531 926.436 189.002C928.026 186.439 927.991 183.578 926.328 180.422C924.812 177.541 922.719 175.911 920.049 175.532C916.952 175.066 912.742 176.09 907.42 178.602L897.564 183.255L885.334 160.028L914.335 146.337L917.757 152.835L895.538 163.324L901.289 174.247L905.422 172.295C912.557 168.927 918.345 167.605 922.783 168.329C927.353 169.077 930.984 172.009 933.678 177.125C936.044 181.618 936.259 185.99 934.322 190.242C932.214 194.949 927.603 198.981 920.491 202.338C915.287 204.795 911.255 206.325 908.397 206.926L904.866 200.221ZM938.159 164.695C934.179 157.137 932.893 150.393 934.299 144.465C935.683 138.661 939.448 134.309 945.595 131.407C951.647 128.55 957.49 128.367 963.123 130.857C968.935 133.407 973.825 138.449 977.793 145.984C981.76 153.519 983.058 160.228 981.687 166.112C980.373 171.825 976.69 176.11 970.638 178.967C964.491 181.868 958.566 182.119 952.863 179.72C947.04 177.261 942.139 172.253 938.159 164.695ZM967.801 173.746C970.226 172.601 971.973 171.172 973.041 169.46C974.109 167.747 974.666 165.845 974.711 163.752C974.805 159.91 973.365 155.166 970.393 149.521C965.734 140.672 960.623 135.936 955.06 135.311C952.973 135.088 950.74 135.538 948.361 136.661C943.91 138.762 941.595 142.128 941.417 146.758C941.254 150.805 942.635 155.605 945.559 161.158C952.05 173.486 959.464 177.682 967.801 173.746ZM986.412 141.915C982.432 134.357 981.145 127.614 982.552 121.685C983.936 115.882 987.701 111.529 993.847 108.628C999.899 105.77 1005.74 105.587 1011.38 108.077C1017.19 110.627 1022.08 115.67 1026.05 123.204C1030.01 130.739 1031.31 137.449 1029.94 143.332C1028.63 149.045 1024.94 153.33 1018.89 156.187C1012.74 159.089 1006.82 159.34 1001.12 156.94C995.293 154.481 990.391 149.473 986.412 141.915ZM1016.05 150.967C1018.48 149.822 1020.23 148.393 1021.29 146.68C1022.36 144.968 1022.92 143.065 1022.96 140.972C1023.06 137.13 1021.62 132.386 1018.65 126.741C1013.99 117.893 1008.88 113.156 1003.31 112.531C1001.23 112.308 998.992 112.758 996.614 113.881C992.163 115.982 989.848 119.348 989.669 123.978C989.507 128.025 990.887 132.825 993.812 138.379C1000.3 150.706 1007.72 154.902 1016.05 150.967Z" fill="url(#paint14_linear_88_6)" fill-opacity="0.2"/>
<path d="M239.505 250.235C243.168 249.599 247.285 248.202 251.853 246.046C256.422 243.889 259.496 241.546 261.075 239.017C262.665 236.453 262.629 233.593 260.967 230.436C259.451 227.556 257.357 225.926 254.688 225.546C251.59 225.081 247.381 226.105 242.059 228.617L232.203 233.27L219.973 210.043L248.974 196.352L252.396 202.85L230.177 213.339L235.928 224.261L240.061 222.31C247.196 218.942 252.983 217.619 257.422 218.343C261.992 219.092 265.623 222.024 268.317 227.139C270.683 231.632 270.897 236.005 268.961 240.257C266.852 244.963 262.242 248.995 255.13 252.353C249.926 254.81 245.894 256.339 243.035 256.941L239.505 250.235ZM272.798 214.709C268.818 207.152 267.532 200.408 268.938 194.479C270.322 188.676 274.087 184.323 280.234 181.422C286.286 178.565 292.129 178.381 297.762 180.872C303.574 183.421 308.464 188.464 312.432 195.999C316.399 203.534 317.697 210.243 316.326 216.126C315.012 221.839 311.329 226.124 305.276 228.981C299.13 231.883 293.205 232.134 287.502 229.734C281.679 227.276 276.778 222.267 272.798 214.709ZM302.439 223.761C304.865 222.616 306.612 221.187 307.68 219.474C308.748 217.762 309.305 215.859 309.35 213.767C309.444 209.924 308.004 205.181 305.032 199.535C300.373 190.687 295.262 185.95 289.699 185.326C287.611 185.103 285.378 185.553 283 186.675C278.549 188.777 276.234 192.142 276.055 196.773C275.893 200.82 277.274 205.62 280.198 211.173C286.689 223.501 294.103 227.697 302.439 223.761ZM321.051 191.93C317.071 184.372 315.784 177.628 317.19 171.7C318.575 165.896 322.34 161.544 328.486 158.642C334.538 155.785 340.381 155.602 346.015 158.092C351.827 160.642 356.717 165.684 360.684 173.219C364.652 180.754 365.95 187.463 364.579 193.347C363.264 199.06 359.581 203.345 353.529 206.202C347.383 209.103 341.458 209.354 335.754 206.955C329.931 204.496 325.03 199.488 321.051 191.93ZM350.692 200.981C353.118 199.836 354.864 198.407 355.933 196.695C357.001 194.982 357.557 193.08 357.602 190.987C357.696 187.145 356.257 182.401 353.284 176.756C348.625 167.907 343.514 163.171 337.951 162.546C335.864 162.323 333.631 162.773 331.253 163.896C326.802 165.997 324.487 169.363 324.308 173.993C324.146 178.04 325.526 182.84 328.45 188.393C334.942 200.721 342.356 204.917 350.692 200.981Z" fill="url(#paint15_linear_88_6)" fill-opacity="0.2"/>
<path d="M38.4137 404.667C42.0774 404.031 46.1936 402.634 50.7622 400.477C55.3307 398.321 58.4046 395.978 59.9837 393.448C61.5743 390.885 61.5384 388.025 59.8762 384.868C58.3595 381.988 56.2663 380.358 53.5966 379.978C50.4994 379.513 46.2897 380.536 40.9676 383.049L31.1122 387.701L18.8819 364.475L47.8829 350.783L51.3045 357.281L29.0857 367.771L34.8368 378.693L38.9697 376.742C46.1052 373.373 51.8923 372.051 56.3312 372.775C60.9006 373.523 64.5321 376.455 67.2257 381.571C69.5917 386.064 69.8064 390.437 67.8698 394.688C65.7613 399.395 61.1511 403.427 54.0392 406.785C48.8348 409.242 44.8032 410.771 41.9444 411.372L38.4137 404.667ZM71.707 369.141C67.7273 361.583 66.4405 354.84 67.8468 348.911C69.2309 343.108 72.9961 338.755 79.1425 335.853C85.1947 332.996 91.0376 332.813 96.6712 335.303C102.483 337.853 107.373 342.896 111.34 350.43C115.308 357.965 116.606 364.675 115.235 370.558C113.921 376.271 110.238 380.556 104.185 383.413C98.039 386.315 92.1141 386.566 86.4105 384.166C80.5878 381.707 75.6866 376.699 71.707 369.141ZM101.348 378.193C103.774 377.048 105.521 375.619 106.589 373.906C107.657 372.193 108.214 370.291 108.259 368.198C108.353 364.356 106.913 359.612 103.941 353.967C99.2815 345.119 94.1705 340.382 88.6077 339.757C86.5203 339.534 84.2874 339.984 81.9089 341.107C77.458 343.208 75.1432 346.574 74.9644 351.204C74.8019 355.251 76.1827 360.051 79.1068 365.605C85.5981 377.932 93.0119 382.128 101.348 378.193ZM119.96 346.361C115.98 338.804 114.693 332.06 116.099 326.131C117.483 320.328 121.249 315.975 127.395 313.074C133.447 310.217 139.29 310.033 144.924 312.524C150.736 315.073 155.626 320.116 159.593 327.651C163.561 335.186 164.859 341.895 163.488 347.778C162.173 353.491 158.49 357.776 152.438 360.633C146.292 363.535 140.367 363.786 134.663 361.386C128.84 358.928 123.939 353.919 119.96 346.361ZM149.601 355.413C152.027 354.268 153.773 352.839 154.842 351.126C155.91 349.414 156.466 347.511 156.511 345.419C156.605 341.576 155.166 336.833 152.193 331.187C147.534 322.339 142.423 317.602 136.86 316.978C134.773 316.755 132.54 317.205 130.161 318.327C125.711 320.429 123.396 323.794 123.217 328.425C123.054 332.472 124.435 337.272 127.359 342.825C133.851 355.153 141.264 359.349 149.601 355.413Z" fill="url(#paint16_linear_88_6)" fill-opacity="0.2"/>
<path d="M81.0412 166C84.705 165.364 88.8212 163.967 93.3897 161.81C97.9583 159.654 101.032 157.311 102.611 154.781C104.202 152.218 104.166 149.358 102.504 146.201C100.987 143.321 98.8939 141.691 96.2242 141.311C93.1269 140.846 88.9173 141.869 83.5951 144.382L73.7397 149.034L61.5095 125.808L90.5105 112.116L93.932 118.614L71.7132 129.104L77.4644 140.026L81.5973 138.075C88.7327 134.706 94.5199 133.384 98.9587 134.108C103.528 134.856 107.16 137.788 109.853 142.904C112.219 147.397 112.434 151.77 110.497 156.021C108.389 160.728 103.779 164.76 96.6668 168.118C91.4624 170.575 87.4308 172.104 84.572 172.705L81.0412 166ZM114.335 130.474C110.355 122.916 109.068 116.173 110.474 110.244C111.858 104.441 115.624 100.088 121.77 97.1865C127.822 94.3293 133.665 94.1458 139.299 96.6362C145.111 99.1861 150.001 104.229 153.968 111.763C157.936 119.298 159.234 126.008 157.862 131.891C156.548 137.604 152.865 141.889 146.813 144.746C140.667 147.648 134.742 147.899 129.038 145.499C123.215 143.04 118.314 138.032 114.335 130.474ZM143.976 139.526C146.402 138.381 148.148 136.952 149.217 135.239C150.285 133.526 150.841 131.624 150.886 129.531C150.98 125.689 149.541 120.945 146.568 115.3C141.909 106.452 136.798 101.715 131.235 101.09C129.148 100.867 126.915 101.317 124.536 102.44C120.086 104.541 117.771 107.907 117.592 112.537C117.429 116.584 118.81 121.384 121.734 126.938C128.226 139.265 135.639 143.461 143.976 139.526ZM162.587 107.694C158.607 100.137 157.321 93.3931 158.727 87.4643C160.111 81.661 163.876 77.3085 170.023 74.4068C176.075 71.5496 181.918 71.3662 187.551 73.8565C193.363 76.4065 198.253 81.4489 202.221 88.9838C206.188 96.5187 207.486 103.228 206.115 109.111C204.801 114.824 201.118 119.109 195.066 121.966C188.919 124.868 182.994 125.119 177.291 122.719C171.468 120.261 166.567 115.252 162.587 107.694ZM192.229 116.746C194.654 115.601 196.401 114.172 197.469 112.459C198.537 110.747 199.094 108.844 199.139 106.752C199.233 102.909 197.793 98.1657 194.821 92.5203C190.162 83.672 185.051 78.9355 179.488 78.3106C177.4 78.0876 175.167 78.5376 172.789 79.6605C168.338 81.7617 166.023 85.1274 165.845 89.7575C165.682 93.8045 167.063 98.6047 169.987 104.158C176.478 116.486 183.892 120.682 192.229 116.746Z" fill="url(#paint17_linear_88_6)" fill-opacity="0.2"/>
<path d="M458.203 350.265C461.867 349.629 465.983 348.232 470.551 346.075C475.12 343.918 478.194 341.575 479.773 339.046C481.363 336.483 481.328 333.623 479.665 330.466C478.149 327.585 476.055 325.956 473.386 325.576C470.289 325.111 466.079 326.134 460.757 328.647L450.901 333.299L438.671 310.073L467.672 296.381L471.094 302.879L448.875 313.369L454.626 324.291L458.759 322.34C465.894 318.971 471.681 317.649 476.12 318.373C480.69 319.121 484.321 322.053 487.015 327.169C489.381 331.662 489.596 336.034 487.659 340.286C485.55 344.993 480.94 349.025 473.828 352.382C468.624 354.839 464.592 356.369 461.734 356.97L458.203 350.265ZM491.496 314.739C487.516 307.181 486.23 300.438 487.636 294.509C489.02 288.705 492.785 284.353 498.932 281.451C504.984 278.594 510.827 278.411 516.46 280.901C522.272 283.451 527.162 288.493 531.13 296.028C535.097 303.563 536.395 310.272 535.024 316.156C533.71 321.869 530.027 326.154 523.975 329.011C517.828 331.913 511.903 332.164 506.2 329.764C500.377 327.305 495.476 322.297 491.496 314.739ZM521.137 323.791C523.563 322.646 525.31 321.217 526.378 319.504C527.446 317.791 528.003 315.889 528.048 313.796C528.142 309.954 526.702 305.21 523.73 299.565C519.071 290.717 513.96 285.98 508.397 285.355C506.309 285.132 504.076 285.582 501.698 286.705C497.247 288.806 494.932 292.172 494.753 296.802C494.591 300.849 495.972 305.649 498.896 311.202C505.387 323.53 512.801 327.726 521.137 323.791ZM539.749 291.959C535.769 284.401 534.482 277.658 535.888 271.729C537.273 265.926 541.038 261.573 547.184 258.672C553.236 255.815 559.079 255.631 564.713 258.121C570.525 260.671 575.415 265.714 579.382 273.249C583.35 280.784 584.648 287.493 583.277 293.376C581.962 299.089 578.279 303.374 572.227 306.231C566.081 309.133 560.156 309.384 554.452 306.984C548.63 304.526 543.728 299.517 539.749 291.959ZM569.39 301.011C571.816 299.866 573.563 298.437 574.631 296.724C575.699 295.012 576.256 293.109 576.3 291.016C576.394 287.174 574.955 282.431 571.982 276.785C567.323 267.937 562.212 263.2 556.649 262.575C554.562 262.353 552.329 262.803 549.951 263.925C545.5 266.027 543.185 269.392 543.006 274.022C542.844 278.069 544.224 282.87 547.149 288.423C553.64 300.75 561.054 304.947 569.39 301.011Z" fill="url(#paint18_linear_88_6)" fill-opacity="0.2"/>
<path d="M549.018 135.289C552.682 134.653 556.798 133.256 561.367 131.1C565.935 128.943 569.009 126.6 570.588 124.071C572.179 121.507 572.143 118.647 570.481 115.49C568.964 112.61 566.871 110.98 564.201 110.6C561.104 110.135 556.894 111.159 551.572 113.671L541.717 118.324L529.486 95.0969L558.487 81.4058L561.909 87.9038L539.69 98.3931L545.441 109.315L549.574 107.364C556.71 103.995 562.497 102.673 566.936 103.397C571.505 104.146 575.137 107.078 577.83 112.193C580.196 116.686 580.411 121.059 578.474 125.31C576.366 130.017 571.756 134.049 564.644 137.407C559.439 139.864 555.408 141.393 552.549 141.995L549.018 135.289ZM582.311 99.7634C578.332 92.2055 577.045 85.4621 578.451 79.5332C579.835 73.7299 583.601 69.3774 589.747 66.4758C595.799 63.6186 601.642 63.4352 607.276 65.9255C613.088 68.4754 617.977 73.5179 621.945 81.0527C625.912 88.5876 627.211 95.2969 625.839 101.18C624.525 106.893 620.842 111.178 614.79 114.035C608.643 116.937 602.718 117.188 597.015 114.788C591.192 112.33 586.291 107.321 582.311 99.7634ZM611.953 108.815C614.378 107.67 616.125 106.241 617.193 104.528C618.262 102.816 618.818 100.913 618.863 98.8205C618.957 94.9784 617.518 90.2347 614.545 84.5893C609.886 75.741 604.775 71.0044 599.212 70.3795C597.125 70.1566 594.892 70.6066 592.513 71.7294C588.062 73.8306 585.748 77.1963 585.569 81.8265C585.406 85.8735 586.787 90.6736 589.711 96.2269C596.202 108.555 603.616 112.751 611.953 108.815ZM630.564 76.9838C626.584 69.4258 625.298 62.6824 626.704 56.7536C628.088 50.9503 631.853 46.5978 638 43.6961C644.052 40.8389 649.895 40.6555 655.528 43.1458C661.34 45.6958 666.23 50.7382 670.198 58.2731C674.165 65.808 675.463 72.5172 674.092 78.4008C672.778 84.1136 669.095 88.3985 663.042 91.2557C656.896 94.1574 650.971 94.4083 645.268 92.0085C639.445 89.5499 634.544 84.5417 630.564 76.9838ZM660.205 86.0354C662.631 84.8903 664.378 83.4614 665.446 81.7488C666.514 80.0361 667.071 78.1335 667.116 76.0408C667.21 72.1988 665.77 67.4551 662.798 61.8097C658.139 52.9614 653.028 48.2248 647.465 47.5999C645.377 47.377 643.144 47.8269 640.766 48.9498C636.315 51.051 634 54.4167 633.821 59.0468C633.659 63.0938 635.04 67.894 637.964 73.4472C644.455 85.7749 651.869 89.971 660.205 86.0354Z" fill="url(#paint19_linear_88_6)" fill-opacity="0.2"/>
<path d="M229.311 580.157C232.975 579.521 237.091 578.124 241.66 575.968C246.228 573.811 249.302 571.468 250.881 568.939C252.472 566.375 252.436 563.515 250.774 560.358C249.257 557.478 247.164 555.848 244.494 555.468C241.397 555.003 237.187 556.027 231.865 558.539L222.01 563.192L209.779 539.965L238.78 526.274L242.202 532.772L219.983 543.261L225.734 554.183L229.867 552.232C237.003 548.864 242.79 547.541 247.229 548.265C251.798 549.014 255.43 551.946 258.123 557.061C260.489 561.554 260.704 565.927 258.767 570.179C256.659 574.885 252.049 578.917 244.937 582.275C239.732 584.732 235.701 586.261 232.842 586.863L229.311 580.157ZM262.604 544.631C258.625 537.074 257.338 530.33 258.744 524.401C260.128 518.598 263.894 514.245 270.04 511.344C276.092 508.487 281.935 508.303 287.569 510.794C293.381 513.343 298.27 518.386 302.238 525.921C306.206 533.456 307.504 540.165 306.132 546.048C304.818 551.761 301.135 556.046 295.083 558.903C288.937 561.805 283.012 562.056 277.308 559.656C271.485 557.198 266.584 552.189 262.604 544.631ZM292.246 553.683C294.671 552.538 296.418 551.109 297.487 549.396C298.555 547.684 299.111 545.781 299.156 543.689C299.25 539.846 297.811 535.103 294.838 529.457C290.179 520.609 285.068 515.872 279.505 515.248C277.418 515.025 275.185 515.475 272.806 516.597C268.356 518.699 266.041 522.064 265.862 526.695C265.699 530.742 267.08 535.542 270.004 541.095C276.496 553.423 283.909 557.619 292.246 553.683ZM310.857 521.852C306.877 514.294 305.591 507.55 306.997 501.622C308.381 495.818 312.146 491.466 318.293 488.564C324.345 485.707 330.188 485.524 335.821 488.014C341.633 490.564 346.523 495.606 350.491 503.141C354.458 510.676 355.756 517.385 354.385 523.269C353.071 528.982 349.388 533.267 343.335 536.124C337.189 539.025 331.264 539.276 325.561 536.877C319.738 534.418 314.837 529.41 310.857 521.852ZM340.498 530.903C342.924 529.758 344.671 528.329 345.739 526.617C346.807 524.904 347.364 523.002 347.409 520.909C347.503 517.067 346.063 512.323 343.091 506.678C338.432 497.829 333.321 493.093 327.758 492.468C325.67 492.245 323.437 492.695 321.059 493.818C316.608 495.919 314.293 499.285 314.114 503.915C313.952 507.962 315.333 512.762 318.257 518.315C324.748 530.643 332.162 534.839 340.498 530.903Z" fill="url(#paint20_linear_88_6)" fill-opacity="0.2"/>
<path d="M38.4137 801.275C42.0774 800.639 46.1936 799.242 50.7622 797.085C55.3307 794.929 58.4046 792.586 59.9837 790.056C61.5743 787.493 61.5384 784.633 59.8762 781.476C58.3595 778.596 56.2663 776.966 53.5966 776.586C50.4994 776.121 46.2897 777.144 40.9676 779.657L31.1122 784.31L18.8819 761.083L47.8829 747.392L51.3045 753.89L29.0857 764.379L34.8368 775.301L38.9697 773.35C46.1052 769.981 51.8923 768.659 56.3312 769.383C60.9006 770.132 64.5321 773.064 67.2257 778.179C69.5917 782.672 69.8064 787.045 67.8698 791.296C65.7613 796.003 61.1511 800.035 54.0392 803.393C48.8348 805.85 44.8032 807.379 41.9444 807.981L38.4137 801.275ZM71.707 765.749C67.7273 758.191 66.4405 751.448 67.8468 745.519C69.2309 739.716 72.9961 735.363 79.1425 732.462C85.1947 729.604 91.0376 729.421 96.6712 731.911C102.483 734.461 107.373 739.504 111.34 747.039C115.308 754.573 116.606 761.283 115.235 767.166C113.921 772.879 110.238 777.164 104.185 780.021C98.039 782.923 92.1141 783.174 86.4105 780.774C80.5878 778.315 75.6866 773.307 71.707 765.749ZM101.348 774.801C103.774 773.656 105.521 772.227 106.589 770.514C107.657 768.802 108.214 766.899 108.259 764.806C108.353 760.964 106.913 756.221 103.941 750.575C99.2815 741.727 94.1705 736.99 88.6077 736.365C86.5203 736.142 84.2874 736.592 81.9089 737.715C77.458 739.816 75.1432 743.182 74.9644 747.812C74.8019 751.859 76.1827 756.659 79.1068 762.213C85.5981 774.54 93.0119 778.736 101.348 774.801ZM119.96 742.97C115.98 735.412 114.693 728.668 116.099 722.739C117.483 716.936 121.249 712.584 127.395 709.682C133.447 706.825 139.29 706.641 144.924 709.132C150.736 711.682 155.626 716.724 159.593 724.259C163.561 731.794 164.859 738.503 163.488 744.387C162.173 750.099 158.49 754.384 152.438 757.242C146.292 760.143 140.367 760.394 134.663 757.994C128.84 755.536 123.939 750.528 119.96 742.97ZM149.601 752.021C152.027 750.876 153.773 749.447 154.842 747.735C155.91 746.022 156.466 744.119 156.511 742.027C156.605 738.185 155.166 733.441 152.193 727.795C147.534 718.947 142.423 714.211 136.86 713.586C134.773 713.363 132.54 713.813 130.161 714.936C125.711 717.037 123.396 720.403 123.217 725.033C123.054 729.08 124.435 733.88 127.359 739.433C133.851 751.761 141.264 755.957 149.601 752.021Z" fill="url(#paint21_linear_88_6)" fill-opacity="0.2"/>
<path d="M354.414 733.711C358.078 733.075 362.194 731.679 366.762 729.522C371.331 727.365 374.405 725.022 375.984 722.493C377.574 719.929 377.539 717.069 375.876 713.912C374.36 711.032 372.267 709.402 369.597 709.023C366.5 708.557 362.29 709.581 356.968 712.093L347.112 716.746L334.882 693.519L363.883 679.828L367.305 686.326L345.086 696.815L350.837 707.737L354.97 705.786C362.105 702.418 367.893 701.095 372.331 701.819C376.901 702.568 380.532 705.5 383.226 710.615C385.592 715.109 385.807 719.481 383.87 723.733C381.762 728.439 377.151 732.472 370.039 735.829C364.835 738.286 360.803 739.815 357.945 740.417L354.414 733.711ZM387.707 698.186C383.727 690.628 382.441 683.884 383.847 677.955C385.231 672.152 388.996 667.8 395.143 664.898C401.195 662.041 407.038 661.857 412.671 664.348C418.483 666.898 423.373 671.94 427.341 679.475C431.308 687.01 432.606 693.719 431.235 699.603C429.921 705.315 426.238 709.6 420.186 712.457C414.039 715.359 408.114 715.61 402.411 713.21C396.588 710.752 391.687 705.743 387.707 698.186ZM417.349 707.237C419.774 706.092 421.521 704.663 422.589 702.951C423.657 701.238 424.214 699.335 424.259 697.243C424.353 693.401 422.913 688.657 419.941 683.011C415.282 674.163 410.171 669.427 404.608 668.802C402.521 668.579 400.288 669.029 397.909 670.152C393.458 672.253 391.143 675.618 390.965 680.249C390.802 684.296 392.183 689.096 395.107 694.649C401.598 706.977 409.012 711.173 417.349 707.237ZM435.96 675.406C431.98 667.848 430.693 661.105 432.1 655.176C433.484 649.372 437.249 645.02 443.395 642.118C449.447 639.261 455.29 639.078 460.924 641.568C466.736 644.118 471.626 649.16 475.593 656.695C479.561 664.23 480.859 670.939 479.488 676.823C478.174 682.536 474.49 686.821 468.438 689.678C462.292 692.579 456.367 692.83 450.663 690.431C444.841 687.972 439.939 682.964 435.96 675.406ZM465.601 684.458C468.027 683.312 469.774 681.884 470.842 680.171C471.91 678.458 472.467 676.556 472.511 674.463C472.605 670.621 471.166 665.877 468.193 660.232C463.534 651.383 458.423 646.647 452.86 646.022C450.773 645.799 448.54 646.249 446.162 647.372C441.711 649.473 439.396 652.839 439.217 657.469C439.055 661.516 440.436 666.316 443.36 671.869C449.851 684.197 457.265 688.393 465.601 684.458Z" fill="url(#paint22_linear_88_6)" fill-opacity="0.2"/>
<path d="M584.232 566.995C587.896 566.359 592.012 564.962 596.581 562.806C601.149 560.649 604.223 558.306 605.802 555.777C607.393 553.213 607.357 550.353 605.695 547.196C604.178 544.316 602.085 542.686 599.415 542.306C596.318 541.841 592.108 542.865 586.786 545.377L576.931 550.03L564.7 526.803L593.701 513.112L597.123 519.61L574.904 530.099L580.655 541.021L584.788 539.07C591.924 535.702 597.711 534.379 602.15 535.103C606.719 535.852 610.351 538.784 613.044 543.899C615.41 548.393 615.625 552.765 613.688 557.017C611.58 561.723 606.97 565.755 599.858 569.113C594.653 571.57 590.622 573.099 587.763 573.701L584.232 566.995ZM617.526 531.469C613.546 523.912 612.259 517.168 613.665 511.239C615.049 505.436 618.815 501.083 624.961 498.182C631.013 495.325 636.856 495.141 642.49 497.632C648.302 500.182 653.191 505.224 657.159 512.759C661.127 520.294 662.425 527.003 661.053 532.886C659.739 538.599 656.056 542.884 650.004 545.741C643.858 548.643 637.933 548.894 632.229 546.494C626.406 544.036 621.505 539.027 617.526 531.469ZM647.167 540.521C649.592 539.376 651.339 537.947 652.408 536.234C653.476 534.522 654.032 532.619 654.077 530.527C654.171 526.684 652.732 521.941 649.759 516.295C645.1 507.447 639.989 502.71 634.426 502.086C632.339 501.863 630.106 502.313 627.727 503.435C623.277 505.537 620.962 508.902 620.783 513.533C620.62 517.58 622.001 522.38 624.925 527.933C631.417 540.261 638.83 544.457 647.167 540.521ZM665.778 508.69C661.798 501.132 660.512 494.389 661.918 488.46C663.302 482.656 667.067 478.304 673.214 475.402C679.266 472.545 685.109 472.362 690.742 474.852C696.554 477.402 701.444 482.444 705.412 489.979C709.379 497.514 710.677 504.223 709.306 510.107C707.992 515.82 704.309 520.105 698.257 522.962C692.11 525.863 686.185 526.114 680.482 523.715C674.659 521.256 669.758 516.248 665.778 508.69ZM695.419 517.741C697.845 516.596 699.592 515.167 700.66 513.455C701.728 511.742 702.285 509.84 702.33 507.747C702.424 503.905 700.984 499.161 698.012 493.516C693.353 484.667 688.242 479.931 682.679 479.306C680.591 479.083 678.358 479.533 675.98 480.656C671.529 482.757 669.214 486.123 669.035 490.753C668.873 494.8 670.254 499.6 673.178 505.153C679.669 517.481 687.083 521.677 695.419 517.741Z" fill="url(#paint23_linear_88_6)" fill-opacity="0.2"/>
<path d="M301.414 929.322C305.077 928.686 309.194 927.289 313.762 925.133C318.331 922.976 321.405 920.633 322.984 918.104C324.574 915.54 324.538 912.68 322.876 909.523C321.36 906.643 319.266 905.013 316.597 904.633C313.499 904.168 309.29 905.191 303.968 907.704L294.112 912.357L281.882 889.13L310.883 875.439L314.304 881.937L292.086 892.426L297.837 903.348L301.97 901.397C309.105 898.028 314.892 896.706 319.331 897.43C323.901 898.179 327.532 901.111 330.226 906.226C332.592 910.719 332.806 915.092 330.87 919.343C328.761 924.05 324.151 928.082 317.039 931.44C311.835 933.897 307.803 935.426 304.944 936.028L301.414 929.322ZM334.707 893.796C330.727 886.238 329.441 879.495 330.847 873.566C332.231 867.763 335.996 863.41 342.143 860.509C348.195 857.652 354.038 857.468 359.671 859.958C365.483 862.508 370.373 867.551 374.34 875.086C378.308 882.621 379.606 889.33 378.235 895.213C376.921 900.926 373.238 905.211 367.185 908.068C361.039 910.97 355.114 911.221 349.411 908.821C343.588 906.363 338.687 901.354 334.707 893.796ZM364.348 902.848C366.774 901.703 368.521 900.274 369.589 898.561C370.657 896.849 371.214 894.946 371.259 892.853C371.353 889.011 369.913 884.268 366.941 878.622C362.282 869.774 357.171 865.037 351.608 864.412C349.52 864.19 347.287 864.64 344.909 865.762C340.458 867.864 338.143 871.229 337.964 875.859C337.802 879.906 339.183 884.707 342.107 890.26C348.598 902.588 356.012 906.784 364.348 902.848ZM382.96 871.017C378.98 863.459 377.693 856.715 379.099 850.787C380.483 844.983 384.249 840.631 390.395 837.729C396.447 834.872 402.29 834.688 407.924 837.179C413.736 839.729 418.626 844.771 422.593 852.306C426.561 859.841 427.859 866.55 426.488 872.434C425.173 878.147 421.49 882.432 415.438 885.289C409.292 888.19 403.367 888.441 397.663 886.041C391.84 883.583 386.939 878.575 382.96 871.017ZM412.601 880.068C415.027 878.923 416.773 877.494 417.842 875.782C418.91 874.069 419.466 872.166 419.511 870.074C419.605 866.232 418.166 861.488 415.193 855.843C410.534 846.994 405.423 842.258 399.86 841.633C397.773 841.41 395.54 841.86 393.161 842.983C388.711 845.084 386.396 848.45 386.217 853.08C386.054 857.127 387.435 861.927 390.359 867.48C396.851 879.808 404.264 884.004 412.601 880.068Z" fill="url(#paint24_linear_88_6)" fill-opacity="0.2"/>
<path d="M423.915 1061.88C427.579 1061.24 431.695 1059.85 436.264 1057.69C440.832 1055.53 443.906 1053.19 445.485 1050.66C447.076 1048.1 447.04 1045.24 445.378 1042.08C443.861 1039.2 441.768 1037.57 439.098 1037.19C436.001 1036.72 431.791 1037.75 426.469 1040.26L416.614 1044.91L404.384 1021.69L433.385 1007.99L436.806 1014.49L414.587 1024.98L420.339 1035.9L424.471 1033.95C431.607 1030.58 437.394 1029.26 441.833 1029.99C446.402 1030.73 450.034 1033.67 452.727 1038.78C455.093 1043.28 455.308 1047.65 453.372 1051.9C451.263 1056.61 446.653 1060.64 439.541 1064C434.337 1066.45 430.305 1067.98 427.446 1068.58L423.915 1061.88ZM457.209 1026.35C453.229 1018.79 451.942 1012.05 453.349 1006.12C454.733 1000.32 458.498 995.967 464.644 993.065C470.696 990.208 476.539 990.024 482.173 992.515C487.985 995.065 492.875 1000.11 496.842 1007.64C500.81 1015.18 502.108 1021.89 500.737 1027.77C499.422 1033.48 495.739 1037.77 489.687 1040.62C483.541 1043.53 477.616 1043.78 471.912 1041.38C466.09 1038.92 461.188 1033.91 457.209 1026.35ZM486.85 1035.4C489.276 1034.26 491.023 1032.83 492.091 1031.12C493.159 1029.4 493.716 1027.5 493.76 1025.41C493.854 1021.57 492.415 1016.82 489.442 1011.18C484.783 1002.33 479.672 997.594 474.109 996.969C472.022 996.746 469.789 997.196 467.411 998.319C462.96 1000.42 460.645 1003.79 460.466 1008.42C460.304 1012.46 461.684 1017.26 464.609 1022.82C471.1 1035.14 478.514 1039.34 486.85 1035.4ZM505.461 1003.57C501.482 996.015 500.195 989.272 501.601 983.343C502.985 977.539 506.75 973.187 512.897 970.285C518.949 967.428 524.792 967.245 530.425 969.735C536.237 972.285 541.127 977.327 545.095 984.862C549.062 992.397 550.361 999.106 548.989 1004.99C547.675 1010.7 543.992 1014.99 537.94 1017.84C531.793 1020.75 525.868 1021 520.165 1018.6C514.342 1016.14 509.441 1011.13 505.461 1003.57ZM535.103 1012.62C537.528 1011.48 539.275 1010.05 540.343 1008.34C541.412 1006.63 541.968 1004.72 542.013 1002.63C542.107 998.788 540.668 994.044 537.695 988.399C533.036 979.55 527.925 974.814 522.362 974.189C520.275 973.966 518.042 974.416 515.663 975.539C511.212 977.64 508.898 981.006 508.719 985.636C508.556 989.683 509.937 994.483 512.861 1000.04C519.352 1012.36 526.766 1016.56 535.103 1012.62Z" fill="url(#paint25_linear_88_6)" fill-opacity="0.2"/>
<path d="M1196.41 129.322C1200.08 128.686 1204.19 127.289 1208.76 125.133C1213.33 122.976 1216.4 120.633 1217.98 118.104C1219.57 115.54 1219.54 112.68 1217.88 109.523C1216.36 106.643 1214.27 105.013 1211.6 104.633C1208.5 104.168 1204.29 105.191 1198.97 107.704L1189.11 112.357L1176.88 89.1299L1205.88 75.4387L1209.3 81.9367L1187.09 92.426L1192.84 103.348L1196.97 101.397C1204.11 98.0284 1209.89 96.7061 1214.33 97.4301C1218.9 98.1787 1222.53 101.111 1225.23 106.226C1227.59 110.719 1227.81 115.092 1225.87 119.343C1223.76 124.05 1219.15 128.082 1212.04 131.44C1206.83 133.897 1202.8 135.426 1199.94 136.028L1196.41 129.322ZM1229.71 93.7964C1225.73 86.2384 1224.44 79.4951 1225.85 73.5662C1227.23 67.7629 1231 63.4104 1237.14 60.5087C1243.19 57.6515 1249.04 57.4681 1254.67 59.9584C1260.48 62.5084 1265.37 67.5508 1269.34 75.0857C1273.31 82.6206 1274.61 89.3298 1273.23 95.2134C1271.92 100.926 1268.24 105.211 1262.19 108.068C1256.04 110.97 1250.11 111.221 1244.41 108.821C1238.59 106.363 1233.69 101.354 1229.71 93.7964ZM1259.35 102.848C1261.77 101.703 1263.52 100.274 1264.59 98.5614C1265.66 96.8487 1266.21 94.9461 1266.26 92.8535C1266.35 89.0114 1264.91 84.2677 1261.94 78.6223C1257.28 69.774 1252.17 65.0374 1246.61 64.4125C1244.52 64.1896 1242.29 64.6395 1239.91 65.7624C1235.46 67.8636 1233.14 71.2293 1232.96 75.8594C1232.8 79.9065 1234.18 84.7066 1237.11 90.2598C1243.6 102.588 1251.01 106.784 1259.35 102.848ZM1277.96 71.0167C1273.98 63.4588 1272.69 56.7154 1274.1 50.7866C1275.48 44.9832 1279.25 40.6307 1285.4 37.7291C1291.45 34.8719 1297.29 34.6885 1302.92 37.1788C1308.74 39.7288 1313.63 44.7712 1317.59 52.3061C1321.56 59.8409 1322.86 66.5502 1321.49 72.4337C1320.17 78.1465 1316.49 82.4315 1310.44 85.2887C1304.29 88.1903 1298.37 88.4413 1292.66 86.0415C1286.84 83.5829 1281.94 78.5746 1277.96 71.0167ZM1307.6 80.0684C1310.03 78.9233 1311.77 77.4944 1312.84 75.7817C1313.91 74.0691 1314.47 72.1664 1314.51 70.0738C1314.61 66.2317 1313.17 61.488 1310.19 55.8426C1305.53 46.9943 1300.42 42.2577 1294.86 41.6328C1292.77 41.4099 1290.54 41.8599 1288.16 42.9828C1283.71 45.0839 1281.4 48.4496 1281.22 53.0798C1281.05 57.1268 1282.44 61.9269 1285.36 67.4802C1291.85 79.8079 1299.26 84.0039 1307.6 80.0684Z" fill="url(#paint26_linear_88_6)" fill-opacity="0.2"/>
<path d="M47.4137 1058.32C51.0774 1057.69 55.1936 1056.29 59.7622 1054.13C64.3307 1051.98 67.4046 1049.63 68.9837 1047.1C70.5743 1044.54 70.5384 1041.68 68.8762 1038.52C67.3595 1035.64 65.2663 1034.01 62.5966 1033.63C59.4994 1033.17 55.2897 1034.19 49.9676 1036.7L40.1122 1041.36L27.8819 1018.13L56.8829 1004.44L60.3045 1010.94L38.0857 1021.43L43.8368 1032.35L47.9697 1030.4C55.1052 1027.03 60.8923 1025.71 65.3312 1026.43C69.9006 1027.18 73.5321 1030.11 76.2257 1035.23C78.5917 1039.72 78.8064 1044.09 76.8698 1048.34C74.7613 1053.05 70.1511 1057.08 63.0392 1060.44C57.8348 1062.9 53.8032 1064.43 50.9444 1065.03L47.4137 1058.32ZM80.707 1022.8C76.7273 1015.24 75.4405 1008.5 76.8468 1002.57C78.2309 996.763 81.9961 992.41 88.1425 989.509C94.1947 986.652 100.038 986.468 105.671 988.958C111.483 991.508 116.373 996.551 120.34 1004.09C124.308 1011.62 125.606 1018.33 124.235 1024.21C122.921 1029.93 119.238 1034.21 113.185 1037.07C107.039 1039.97 101.114 1040.22 95.4105 1037.82C89.5878 1035.36 84.6866 1030.35 80.707 1022.8ZM110.348 1031.85C112.774 1030.7 114.521 1029.27 115.589 1027.56C116.657 1025.85 117.214 1023.95 117.259 1021.85C117.353 1018.01 115.913 1013.27 112.941 1007.62C108.282 998.774 103.171 994.037 97.6077 993.412C95.5203 993.19 93.2874 993.64 90.9089 994.762C86.458 996.864 84.1432 1000.23 83.9644 1004.86C83.8019 1008.91 85.1827 1013.71 88.1068 1019.26C94.5981 1031.59 102.012 1035.78 110.348 1031.85ZM128.96 1000.02C124.98 992.459 123.693 985.715 125.099 979.787C126.483 973.983 130.249 969.631 136.395 966.729C142.447 963.872 148.29 963.688 153.924 966.179C159.736 968.729 164.626 973.771 168.593 981.306C172.561 988.841 173.859 995.55 172.488 1001.43C171.173 1007.15 167.49 1011.43 161.438 1014.29C155.292 1017.19 149.367 1017.44 143.663 1015.04C137.84 1012.58 132.939 1007.57 128.96 1000.02ZM158.601 1009.07C161.027 1007.92 162.773 1006.49 163.842 1004.78C164.91 1003.07 165.466 1001.17 165.511 999.074C165.605 995.232 164.166 990.488 161.193 984.843C156.534 975.994 151.423 971.258 145.86 970.633C143.773 970.41 141.54 970.86 139.161 971.983C134.711 974.084 132.396 977.45 132.217 982.08C132.054 986.127 133.435 990.927 136.359 996.48C142.851 1008.81 150.264 1013 158.601 1009.07Z" fill="url(#paint27_linear_88_6)" fill-opacity="0.2"/>
<path d="M884.947 811.464C888.558 810.769 892.625 809.294 897.146 807.04C901.667 804.786 904.721 802.361 906.308 799.766C907.907 797.136 907.91 794.224 906.318 791.031C904.866 788.118 902.829 786.485 900.209 786.133C897.17 785.699 893.017 786.794 887.75 789.421L877.997 794.283L866.284 770.791L894.985 756.482L898.261 763.054L876.273 774.017L881.78 785.064L885.871 783.025C892.932 779.504 898.64 778.084 902.995 778.764C907.478 779.468 911.01 782.407 913.589 787.581C915.855 792.125 916.007 796.574 914.046 800.928C911.909 805.747 907.321 809.911 900.283 813.42C895.133 815.988 891.148 817.597 888.329 818.246L884.947 811.464ZM918.163 774.868C914.352 767.224 913.177 760.375 914.64 754.32C916.079 748.394 919.84 743.915 925.923 740.882C931.913 737.895 937.66 737.634 943.166 740.098C948.847 742.62 953.587 747.691 957.386 755.312C961.186 762.933 962.372 769.747 960.944 775.755C959.575 781.588 955.896 785.998 949.906 788.984C943.823 792.017 937.994 792.348 932.418 789.978C926.726 787.549 921.974 782.512 918.163 774.868ZM947.187 783.706C949.587 782.509 951.324 781.032 952.398 779.274C953.471 777.517 954.044 775.573 954.116 773.442C954.261 769.529 952.909 764.717 950.063 759.007C945.601 750.058 940.639 745.301 935.177 744.736C933.128 744.535 930.926 745.022 928.572 746.195C924.168 748.392 921.846 751.848 921.608 756.564C921.394 760.687 922.687 765.556 925.487 771.173C931.703 783.642 938.937 787.819 947.187 783.706ZM965.916 751.059C962.105 743.415 960.931 736.566 962.393 730.511C963.832 724.585 967.593 720.106 973.676 717.073C979.666 714.087 985.413 713.825 990.919 716.289C996.6 718.811 1001.34 723.882 1005.14 731.503C1008.94 739.124 1010.13 745.939 1008.7 751.946C1007.33 757.78 1003.65 762.189 997.659 765.176C991.577 768.208 985.747 768.54 980.171 766.169C974.479 763.74 969.727 758.704 965.916 751.059ZM994.94 759.897C997.341 758.7 999.078 757.223 1000.15 755.466C1001.22 753.708 1001.8 751.764 1001.87 749.633C1002.01 745.72 1000.66 740.908 997.816 735.199C993.354 726.249 988.392 721.492 982.931 720.927C980.881 720.726 978.679 721.213 976.326 722.387C971.921 724.583 969.599 728.039 969.361 732.755C969.147 736.878 970.44 741.748 973.24 747.364C979.457 759.833 986.69 764.01 994.94 759.897Z" fill="url(#paint28_linear_88_6)" fill-opacity="0.2"/>
<path d="M1215.95 454.464C1219.56 453.769 1223.62 452.294 1228.15 450.04C1232.67 447.786 1235.72 445.361 1237.31 442.766C1238.91 440.136 1238.91 437.224 1237.32 434.031C1235.87 431.118 1233.83 429.485 1231.21 429.133C1228.17 428.699 1224.02 429.794 1218.75 432.421L1209 437.283L1197.28 413.791L1225.98 399.482L1229.26 406.054L1207.27 417.017L1212.78 428.064L1216.87 426.025C1223.93 422.504 1229.64 421.084 1234 421.764C1238.48 422.468 1242.01 425.407 1244.59 430.581C1246.85 435.125 1247.01 439.574 1245.05 443.928C1242.91 448.747 1238.32 452.911 1231.28 456.42C1226.13 458.988 1222.15 460.597 1219.33 461.246L1215.95 454.464ZM1249.16 417.868C1245.35 410.224 1244.18 403.375 1245.64 397.32C1247.08 391.394 1250.84 386.915 1256.92 383.882C1262.91 380.895 1268.66 380.634 1274.17 383.098C1279.85 385.62 1284.59 390.691 1288.39 398.312C1292.19 405.933 1293.37 412.747 1291.94 418.755C1290.58 424.588 1286.9 428.998 1280.91 431.984C1274.82 435.017 1268.99 435.348 1263.42 432.978C1257.73 430.549 1252.97 425.512 1249.16 417.868ZM1278.19 426.706C1280.59 425.509 1282.32 424.032 1283.4 422.274C1284.47 420.517 1285.04 418.573 1285.12 416.442C1285.26 412.529 1283.91 407.717 1281.06 402.007C1276.6 393.058 1271.64 388.301 1266.18 387.736C1264.13 387.535 1261.93 388.022 1259.57 389.195C1255.17 391.392 1252.85 394.848 1252.61 399.564C1252.39 403.687 1253.69 408.556 1256.49 414.173C1262.7 426.642 1269.94 430.819 1278.19 426.706ZM1296.92 394.059C1293.1 386.415 1291.93 379.566 1293.39 373.511C1294.83 367.585 1298.59 363.106 1304.68 360.073C1310.67 357.087 1316.41 356.825 1321.92 359.289C1327.6 361.811 1332.34 366.882 1336.14 374.503C1339.94 382.124 1341.13 388.939 1339.7 394.946C1338.33 400.78 1334.65 405.189 1328.66 408.176C1322.58 411.208 1316.75 411.54 1311.17 409.169C1305.48 406.74 1300.73 401.704 1296.92 394.059ZM1325.94 402.897C1328.34 401.7 1330.08 400.223 1331.15 398.466C1332.22 396.708 1332.8 394.764 1332.87 392.633C1333.01 388.72 1331.66 383.908 1328.82 378.199C1324.35 369.249 1319.39 364.492 1313.93 363.927C1311.88 363.726 1309.68 364.213 1307.33 365.387C1302.92 367.583 1300.6 371.039 1300.36 375.755C1300.15 379.878 1301.44 384.748 1304.24 390.364C1310.46 402.833 1317.69 407.01 1325.94 402.897Z" fill="url(#paint29_linear_88_6)" fill-opacity="0.2"/>
<path d="M943.947 606.463C947.558 605.769 951.625 604.294 956.146 602.04C960.667 599.786 963.721 597.361 965.308 594.766C966.907 592.136 966.91 589.224 965.318 586.031C963.866 583.118 961.829 581.485 959.209 581.133C956.17 580.699 952.017 581.794 946.75 584.42L936.997 589.283L925.284 565.791L953.985 551.482L957.261 558.054L935.273 569.017L940.78 580.064L944.871 578.025C951.932 574.504 957.64 573.084 961.995 573.764C966.478 574.468 970.01 577.407 972.589 582.581C974.855 587.125 975.007 591.574 973.046 595.928C970.909 600.747 966.321 604.911 959.283 608.42C954.133 610.988 950.148 612.596 947.329 613.245L943.947 606.463ZM977.163 569.868C973.352 562.224 972.177 555.375 973.64 549.32C975.079 543.394 978.84 538.914 984.923 535.882C990.913 532.895 996.66 532.634 1002.17 535.098C1007.85 537.62 1012.59 542.691 1016.39 550.312C1020.19 557.933 1021.37 564.747 1019.94 570.755C1018.58 576.588 1014.9 580.998 1008.91 583.984C1002.82 587.017 996.994 587.348 991.418 584.978C985.726 582.549 980.974 577.512 977.163 569.868ZM1006.19 578.706C1008.59 577.509 1010.32 576.032 1011.4 574.274C1012.47 572.517 1013.04 570.573 1013.12 568.441C1013.26 564.529 1011.91 559.717 1009.06 554.007C1004.6 545.058 999.639 540.301 994.177 539.735C992.128 539.535 989.926 540.022 987.572 541.195C983.168 543.391 980.846 546.848 980.608 551.564C980.394 555.687 981.687 560.556 984.487 566.173C990.703 578.641 997.937 582.819 1006.19 578.706ZM1024.92 546.059C1021.1 538.415 1019.93 531.566 1021.39 525.511C1022.83 519.585 1026.59 515.106 1032.68 512.073C1038.67 509.087 1044.41 508.825 1049.92 511.289C1055.6 513.811 1060.34 518.882 1064.14 526.503C1067.94 534.124 1069.13 540.939 1067.7 546.946C1066.33 552.78 1062.65 557.189 1056.66 560.176C1050.58 563.208 1044.75 563.539 1039.17 561.169C1033.48 558.74 1028.73 553.703 1024.92 546.059ZM1053.94 554.897C1056.34 553.7 1058.08 552.223 1059.15 550.465C1060.22 548.708 1060.8 546.764 1060.87 544.633C1061.01 540.72 1059.66 535.908 1056.82 530.198C1052.35 521.249 1047.39 516.492 1041.93 515.927C1039.88 515.726 1037.68 516.213 1035.33 517.386C1030.92 519.583 1028.6 523.039 1028.36 527.755C1028.15 531.878 1029.44 536.747 1032.24 542.364C1038.46 554.833 1045.69 559.01 1053.94 554.897Z" fill="url(#paint30_linear_88_6)" fill-opacity="0.2"/>
<defs>
<linearGradient id="paint0_linear_88_6" x1="665.29" y1="815.724" x2="700.113" y2="889.487" gradientUnits="userSpaceOnUse">
<stop stop-color="#C1C1C1"/>
<stop offset="0.786458" stop-color="#430085"/>
</linearGradient>
<linearGradient id="paint1_linear_88_6" x1="1594.76" y1="799.93" x2="1629.58" y2="873.694" gradientUnits="userSpaceOnUse">
<stop stop-color="#C1C1C1"/>
<stop offset="0.786458" stop-color="#430085"/>
</linearGradient>
<linearGradient id="paint2_linear_88_6" x1="1809.75" y1="641.989" x2="1844.57" y2="715.752" gradientUnits="userSpaceOnUse">
<stop stop-color="#C1C1C1"/>
<stop offset="0.786458" stop-color="#430085"/>
</linearGradient>
<linearGradient id="paint3_linear_88_6" x1="1797.7" y1="351.552" x2="1832.52" y2="425.316" gradientUnits="userSpaceOnUse">
<stop stop-color="#C1C1C1"/>
<stop offset="0.786458" stop-color="#430085"/>
</linearGradient>
<linearGradient id="paint4_linear_88_6" x1="1698.55" y1="46.1991" x2="1733.37" y2="119.962" gradientUnits="userSpaceOnUse">
<stop stop-color="#C1C1C1"/>
<stop offset="0.786458" stop-color="#430085"/>
</linearGradient>
<linearGradient id="paint5_linear_88_6" x1="1400.15" y1="130.435" x2="1434.98" y2="204.198" gradientUnits="userSpaceOnUse">
<stop stop-color="#C1C1C1"/>
<stop offset="0.786458" stop-color="#430085"/>
</linearGradient>
<linearGradient id="paint6_linear_88_6" x1="1596.61" y1="239.239" x2="1631.43" y2="313.002" gradientUnits="userSpaceOnUse">
<stop stop-color="#C1C1C1"/>
<stop offset="0.786458" stop-color="#430085"/>
</linearGradient>
<linearGradient id="paint7_linear_88_6" x1="1596.61" y1="513.004" x2="1631.43" y2="586.767" gradientUnits="userSpaceOnUse">
<stop stop-color="#C1C1C1"/>
<stop offset="0.786458" stop-color="#430085"/>
</linearGradient>
<linearGradient id="paint8_linear_88_6" x1="1787.51" y1="973.666" x2="1822.33" y2="1047.43" gradientUnits="userSpaceOnUse">
<stop stop-color="#C1C1C1"/>
<stop offset="0.786458" stop-color="#430085"/>
</linearGradient>
<linearGradient id="paint9_linear_88_6" x1="1412.2" y1="964.891" x2="1447.02" y2="1038.65" gradientUnits="userSpaceOnUse">
<stop stop-color="#C1C1C1"/>
<stop offset="0.786458" stop-color="#430085"/>
</linearGradient>
<linearGradient id="paint10_linear_88_6" x1="909.009" y1="968.401" x2="943.832" y2="1042.16" gradientUnits="userSpaceOnUse">
<stop stop-color="#C1C1C1"/>
<stop offset="0.786458" stop-color="#430085"/>
</linearGradient>
<linearGradient id="paint11_linear_88_6" x1="1247.25" y1="781.504" x2="1282.07" y2="855.267" gradientUnits="userSpaceOnUse">
<stop stop-color="#C1C1C1"/>
<stop offset="0.786458" stop-color="#430085"/>
</linearGradient>
<linearGradient id="paint12_linear_88_6" x1="1321.38" y1="571.793" x2="1356.21" y2="645.556" gradientUnits="userSpaceOnUse">
<stop stop-color="#C1C1C1"/>
<stop offset="0.786458" stop-color="#430085"/>
</linearGradient>
<linearGradient id="paint13_linear_88_6" x1="1149.02" y1="219.057" x2="1183.84" y2="292.82" gradientUnits="userSpaceOnUse">
<stop stop-color="#C1C1C1"/>
<stop offset="0.786458" stop-color="#430085"/>
</linearGradient>
<linearGradient id="paint14_linear_88_6" x1="938.663" y1="104.989" x2="973.486" y2="178.752" gradientUnits="userSpaceOnUse">
<stop stop-color="#C1C1C1"/>
<stop offset="0.786458" stop-color="#430085"/>
</linearGradient>
<linearGradient id="paint15_linear_88_6" x1="273.302" y1="155.003" x2="308.125" y2="228.766" gradientUnits="userSpaceOnUse">
<stop stop-color="#C1C1C1"/>
<stop offset="0.786458" stop-color="#430085"/>
</linearGradient>
<linearGradient id="paint16_linear_88_6" x1="72.2108" y1="309.435" x2="107.034" y2="383.198" gradientUnits="userSpaceOnUse">
<stop stop-color="#C1C1C1"/>
<stop offset="0.786458" stop-color="#430085"/>
</linearGradient>
<linearGradient id="paint17_linear_88_6" x1="114.838" y1="70.7678" x2="149.661" y2="144.531" gradientUnits="userSpaceOnUse">
<stop stop-color="#C1C1C1"/>
<stop offset="0.786458" stop-color="#430085"/>
</linearGradient>
<linearGradient id="paint18_linear_88_6" x1="492" y1="255.033" x2="526.823" y2="328.796" gradientUnits="userSpaceOnUse">
<stop stop-color="#C1C1C1"/>
<stop offset="0.786458" stop-color="#430085"/>
</linearGradient>
<linearGradient id="paint19_linear_88_6" x1="582.815" y1="40.0571" x2="617.638" y2="113.82" gradientUnits="userSpaceOnUse">
<stop stop-color="#C1C1C1"/>
<stop offset="0.786458" stop-color="#430085"/>
</linearGradient>
<linearGradient id="paint20_linear_88_6" x1="263.108" y1="484.925" x2="297.931" y2="558.688" gradientUnits="userSpaceOnUse">
<stop stop-color="#C1C1C1"/>
<stop offset="0.786458" stop-color="#430085"/>
</linearGradient>
<linearGradient id="paint21_linear_88_6" x1="72.2108" y1="706.043" x2="107.034" y2="779.806" gradientUnits="userSpaceOnUse">
<stop stop-color="#C1C1C1"/>
<stop offset="0.786458" stop-color="#430085"/>
</linearGradient>
<linearGradient id="paint22_linear_88_6" x1="388.211" y1="638.479" x2="423.034" y2="712.242" gradientUnits="userSpaceOnUse">
<stop stop-color="#C1C1C1"/>
<stop offset="0.786458" stop-color="#430085"/>
</linearGradient>
<linearGradient id="paint23_linear_88_6" x1="618.029" y1="471.763" x2="652.852" y2="545.526" gradientUnits="userSpaceOnUse">
<stop stop-color="#C1C1C1"/>
<stop offset="0.786458" stop-color="#430085"/>
</linearGradient>
<linearGradient id="paint24_linear_88_6" x1="335.211" y1="834.09" x2="370.034" y2="907.853" gradientUnits="userSpaceOnUse">
<stop stop-color="#C1C1C1"/>
<stop offset="0.786458" stop-color="#430085"/>
</linearGradient>
<linearGradient id="paint25_linear_88_6" x1="457.712" y1="966.646" x2="492.535" y2="1040.41" gradientUnits="userSpaceOnUse">
<stop stop-color="#C1C1C1"/>
<stop offset="0.786458" stop-color="#430085"/>
</linearGradient>
<linearGradient id="paint26_linear_88_6" x1="1230.21" y1="34.0901" x2="1265.03" y2="107.853" gradientUnits="userSpaceOnUse">
<stop stop-color="#C1C1C1"/>
<stop offset="0.786458" stop-color="#430085"/>
</linearGradient>
<linearGradient id="paint27_linear_88_6" x1="81.2108" y1="963.09" x2="116.034" y2="1036.85" gradientUnits="userSpaceOnUse">
<stop stop-color="#C1C1C1"/>
<stop offset="0.786458" stop-color="#430085"/>
</linearGradient>
<linearGradient id="paint28_linear_88_6" x1="925.924" y1="710.851" x2="966.974" y2="793.185" gradientUnits="userSpaceOnUse">
<stop stop-color="#C1C1C1"/>
<stop offset="0.786458" stop-color="#430085"/>
</linearGradient>
<linearGradient id="paint29_linear_88_6" x1="1256.92" y1="353.851" x2="1297.97" y2="436.185" gradientUnits="userSpaceOnUse">
<stop stop-color="#C1C1C1"/>
<stop offset="0.786458" stop-color="#430085"/>
</linearGradient>
<linearGradient id="paint30_linear_88_6" x1="984.924" y1="505.851" x2="1025.97" y2="588.185" gradientUnits="userSpaceOnUse">
<stop stop-color="#C1C1C1"/>
<stop offset="0.786458" stop-color="#430085"/>
</linearGradient>
</defs>
</svg>
