<svg width="1920" height="1080" viewBox="0 0 1920 1080" fill="none" xmlns="http://www.w3.org/2000/svg">
<path d="M1699.36 801.383L1675.19 749.537C1671.51 741.663 1662.15 738.256 1654.28 741.928C1646.41 745.6 1643 754.96 1646.67 762.834L1666.62 805.606" stroke="#7900B3" stroke-width="15" stroke-linecap="round"/>
<path d="M1732.7 822.127L1722.03 748.988C1720.79 740.457 1712.81 734.59 1704.29 735.947C1695.82 737.297 1690.06 745.285 1691.47 753.75L1699.36 801.383" stroke="#7900B3" stroke-width="15" stroke-linecap="round"/>
<path d="M1640.68 826.358L1659.68 842.719C1666.24 848.371 1667 858.268 1661.37 864.856C1655.72 871.481 1645.75 872.245 1639.15 866.559L1620.15 850.199C1613.58 844.546 1612.83 834.649 1618.45 828.062C1624.11 821.436 1634.08 820.673 1640.68 826.358Z" stroke="#7900B3" stroke-width="15" stroke-linecap="round"/>
<path d="M1689.38 836.088C1688.85 830.223 1686.06 824.794 1681.59 820.952L1662.28 804.318C1655.79 798.73 1645.99 799.481 1640.43 805.993C1634.76 812.626 1635.7 822.629 1642.51 828.091L1644.84 829.967" stroke="#7900B3" stroke-width="15" stroke-linecap="round"/>
<path d="M1730.63 875.18L1730.92 864.444C1730.95 863.375 1730 862.54 1728.95 862.7L1693.23 868.11C1686.06 869.194 1679.15 865.007 1676.8 858.16C1674.12 850.393 1678.19 841.92 1685.93 839.154L1730.12 823.342C1730.12 823.342 1766.24 812.812 1770.29 851.951C1774.34 891.09 1775.89 904.568 1749.97 916.656C1733.12 924.513 1708.49 935.997 1708.49 935.997L1705.9 937.205C1685.14 946.885 1660.46 937.905 1650.78 917.146L1615.64 845.166" stroke="#7900B3" stroke-width="15" stroke-linecap="round"/>
<path d="M200.401 923.891C207.321 955.011 241.747 948.81 245.166 922.763C250.299 883.644 253.28 861.917 254.895 850.463C255.844 843.727 252.162 837.161 245.9 834.503L158.045 797.211C151.784 794.553 144.517 796.499 140.417 801.927C124.993 822.342 111.375 840.218 96.0502 859.467C79.6875 880.02 99.1419 909.091 126.335 892.452" stroke="#7900B3" stroke-width="11.1178" stroke-linecap="round" stroke-linejoin="round"/>
<path d="M229.876 863.935L229.923 864.035" stroke="#7900B3" stroke-width="11.1178" stroke-linecap="round" stroke-linejoin="round"/>
<path d="M223.918 849.328L223.965 849.428" stroke="#7900B3" stroke-width="11.1178" stroke-linecap="round" stroke-linejoin="round"/>
<path d="M215.23 869.796L215.277 869.896" stroke="#7900B3" stroke-width="11.1178" stroke-linecap="round" stroke-linejoin="round"/>
<path d="M209.408 855.247L209.455 855.347" stroke="#7900B3" stroke-width="11.1178" stroke-linecap="round" stroke-linejoin="round"/>
<path d="M159.171 821.844L150.482 842.312" stroke="#7900B3" stroke-width="11.1178" stroke-linecap="round" stroke-linejoin="round"/>
<path d="M144.593 827.734L165.061 836.422" stroke="#7900B3" stroke-width="11.1178" stroke-linecap="round" stroke-linejoin="round"/>
<path d="M139.929 886.144C147.465 889.343 156.167 885.828 159.366 878.291C162.565 870.755 159.049 862.053 151.513 858.854C143.977 855.655 135.275 859.171 132.076 866.707C128.877 874.243 132.393 882.946 139.929 886.144Z" stroke="#7900B3" stroke-width="11.1178" stroke-linecap="round" stroke-linejoin="round"/>
<path d="M194.51 909.313C202.047 912.512 210.749 908.996 213.948 901.46C217.147 893.923 213.631 885.221 206.095 882.022C198.558 878.823 189.856 882.339 186.657 889.875C183.458 897.412 186.974 906.114 194.51 909.313Z" stroke="#7900B3" stroke-width="11.1178" stroke-linecap="round" stroke-linejoin="round"/>
<path d="M166.951 110.707H152.463M210.414 110.707H195.926M109 132.438C109 172.445 141.432 204.877 181.438 204.877C221.445 204.877 253.877 172.445 253.877 132.438C253.877 92.4318 221.445 60 181.438 60C141.432 60 109 92.4318 109 132.438ZM195.926 139.682H166.951V161.414C166.951 166.243 169.848 175.902 181.438 175.902C193.029 175.902 195.926 166.243 195.926 161.414V139.682Z" stroke="#430085" stroke-width="10.8658" stroke-linecap="round" stroke-linejoin="round"/>
<path d="M1011.51 500.719L1027.82 537.371C1029.05 540.131 1032.29 541.372 1035.05 540.143L1080.03 520.116" stroke="#430085" stroke-width="13.6776" stroke-linecap="round" stroke-linejoin="round"/>
<path d="M1136.46 445.087L1152.77 481.739C1154 484.5 1152.76 487.733 1150 488.962L1113.35 505.281" stroke="#430085" stroke-width="13.6776" stroke-linecap="round" stroke-linejoin="round"/>
<path d="M1061.43 388.66L1098.08 372.342C1100.84 371.113 1104.07 372.354 1105.3 375.114L1121.62 411.767" stroke="#430085" stroke-width="13.6776" stroke-linecap="round" stroke-linejoin="round"/>
<path d="M996.67 467.398L980.351 430.746C979.123 427.986 980.364 424.752 983.124 423.523L1028.11 403.495" stroke="#430085" stroke-width="13.6776" stroke-linecap="round" stroke-linejoin="round"/>
<path d="M1113.35 505.281L1117.06 513.611C1121.16 522.812 1117.02 533.592 1107.82 537.689C1098.61 541.785 1087.84 537.648 1083.74 528.446L1080.03 520.116" stroke="#430085" stroke-width="13.6776" stroke-linecap="round" stroke-linejoin="round"/>
<path d="M996.67 467.398L1005 463.69C1014.2 459.593 1024.98 463.731 1029.08 472.932C1033.17 482.133 1029.04 492.913 1019.84 497.01L1011.51 500.718" stroke="#430085" stroke-width="13.6776" stroke-linecap="round" stroke-linejoin="round"/>
<path d="M1121.62 411.767L1129.95 408.058C1139.15 403.961 1149.93 408.099 1154.03 417.3C1158.13 426.502 1153.99 437.281 1144.79 441.378L1136.46 445.087" stroke="#430085" stroke-width="13.6776" stroke-linecap="round" stroke-linejoin="round"/>
<path d="M1061.43 388.66L1057.72 380.33C1053.62 371.129 1042.84 366.991 1033.64 371.088C1024.44 375.184 1020.3 385.964 1024.4 395.165L1028.11 403.495" stroke="#430085" stroke-width="13.6776" stroke-linecap="round" stroke-linejoin="round"/>
<path d="M1735.31 136.056L1768 62M1691.85 137.699L1654 62M1722.06 132.574L1687.63 62M1736.08 62L1726.96 83.9231M1662.77 184.769C1662.77 213.828 1686.33 237.384 1715.38 237.384C1744.44 237.384 1768 213.828 1768 184.769C1768 155.711 1744.44 132.154 1715.38 132.154C1686.33 132.154 1662.77 155.711 1662.77 184.769Z" stroke="#430085" stroke-width="12" stroke-linecap="round" stroke-linejoin="round"/>
<path d="M1702.23 175.999L1719.77 162.845V206.691" stroke="#430085" stroke-width="12" stroke-linecap="round" stroke-linejoin="round"/>
<path d="M994.59 1010.35V986.653C994.9 982.716 994.368 978.758 993.03 975.043C991.691 971.327 989.578 967.939 986.829 965.104C1012.75 962.214 1040 952.389 1040 907.309C1040 895.782 1035.56 884.697 1027.62 876.348C1031.38 866.263 1031.11 855.115 1026.87 845.221C1026.87 845.221 1017.13 842.331 994.59 857.441C975.667 852.312 955.719 852.312 936.796 857.441C914.256 842.331 904.513 845.221 904.513 845.221C900.273 855.115 900.006 866.263 903.77 876.348C895.763 884.758 891.324 895.944 891.386 907.557C891.386 952.306 918.632 962.131 944.557 965.351C941.84 968.159 939.745 971.506 938.408 975.176C937.071 978.846 936.522 982.757 936.796 986.653V1010.35" stroke="#7900B3" stroke-width="14.1337" stroke-linecap="round" stroke-linejoin="round"/>
<path d="M936.795 993.835C912.025 1001.87 891.385 993.835 879 969.066" stroke="#7900B3" stroke-width="14.1337" stroke-linecap="round" stroke-linejoin="round"/>
</svg>
