<svg width="1920" height="1080" viewBox="0 0 1920 1080" fill="none" xmlns="http://www.w3.org/2000/svg">
<path d="M1238.9 105.506C1310.48 67.9186 1375.41 170.225 1303.84 207.812C1252.71 234.66 1233.42 182.787 1172.07 215.005" stroke="#B6B6B6" stroke-width="25" stroke-linecap="round" stroke-linejoin="round"/>
<path d="M1110.5 247.501L1110.75 247.55" stroke="#B6B6B6" stroke-width="25" stroke-linecap="round" stroke-linejoin="round"/>
<path d="M1052.99 491.744C1011.67 426.64 1124.14 367.574 1165.47 432.677C1194.98 479.179 1137.95 496.726 1173.37 552.529" stroke="#B6B6B6" stroke-width="25" stroke-linecap="round" stroke-linejoin="round"/>
<path d="M1209.1 608.541L1209.15 608.311" stroke="#B6B6B6" stroke-width="25" stroke-linecap="round" stroke-linejoin="round"/>
<path d="M61.9926 158.831C20.669 93.7275 133.143 34.6618 174.466 99.7654C203.983 146.267 146.954 163.814 182.374 219.617" stroke="#B6B6B6" stroke-width="25" stroke-linecap="round" stroke-linejoin="round"/>
<path d="M218.101 275.629L218.154 275.399" stroke="#B6B6B6" stroke-width="25" stroke-linecap="round" stroke-linejoin="round"/>
<path d="M1515.99 823.094C1474.67 888.198 1587.14 947.264 1628.47 882.16C1657.98 835.658 1600.95 818.112 1636.37 762.309" stroke="#B6B6B6" stroke-width="25" stroke-linecap="round" stroke-linejoin="round"/>
<path d="M1672.1 706.297L1672.15 706.527" stroke="#B6B6B6" stroke-width="25" stroke-linecap="round" stroke-linejoin="round"/>
<path d="M1004.63 731.025C1045.95 665.921 1158.43 724.988 1117.1 790.091C1087.59 836.593 1042.37 800.443 1006.95 856.246" stroke="#B6B6B6" stroke-width="25" stroke-linecap="round" stroke-linejoin="round"/>
<path d="M971.48 912.395L971.726 912.322" stroke="#B6B6B6" stroke-width="25" stroke-linecap="round" stroke-linejoin="round"/>
<path d="M240.901 579.506C312.476 617.093 377.412 514.787 305.838 477.2C254.714 450.352 235.423 502.225 174.074 470.007" stroke="#B6B6B6" stroke-width="25" stroke-linecap="round" stroke-linejoin="round"/>
<path d="M112.495 437.51L112.748 437.461" stroke="#B6B6B6" stroke-width="25" stroke-linecap="round" stroke-linejoin="round"/>
<path d="M638.993 526.566C597.669 591.67 710.143 650.736 751.466 585.632C780.983 539.13 723.954 521.584 759.374 465.781" stroke="#B6B6B6" stroke-width="25" stroke-linecap="round" stroke-linejoin="round"/>
<path d="M795.1 409.769L795.154 409.999" stroke="#B6B6B6" stroke-width="25" stroke-linecap="round" stroke-linejoin="round"/>
<path d="M112.993 810.102C71.669 744.998 184.143 685.933 225.466 751.036C254.983 797.538 197.954 815.085 233.374 870.888" stroke="#B6B6B6" stroke-width="25" stroke-linecap="round" stroke-linejoin="round"/>
<path d="M269.101 926.899L269.154 926.669" stroke="#B6B6B6" stroke-width="25" stroke-linecap="round" stroke-linejoin="round"/>
<path d="M1616.99 187.029C1575.67 121.925 1688.14 62.8593 1729.47 127.963C1758.98 174.465 1701.95 192.011 1737.37 247.814" stroke="#B6B6B6" stroke-width="25" stroke-linecap="round" stroke-linejoin="round"/>
<path d="M1773.1 303.826L1773.15 303.596" stroke="#B6B6B6" stroke-width="25" stroke-linecap="round" stroke-linejoin="round"/>
<path d="M1568.63 426.31C1609.95 361.206 1722.43 420.273 1681.1 485.376C1651.59 531.878 1606.37 495.728 1570.95 551.531" stroke="#B6B6B6" stroke-width="25" stroke-linecap="round" stroke-linejoin="round"/>
<path d="M1535.48 607.68L1535.73 607.608" stroke="#B6B6B6" stroke-width="25" stroke-linecap="round" stroke-linejoin="round"/>
</svg>
